<?xml version="1.0" encoding="UTF-8" standalone="no"?>
<!-- Creator: CorelDRAW 2019 (64-Bit) -->

<svg
   xml:space="preserve"
   width="37.855mm"
   height="37.855mm"
   version="1.1"
   style="clip-rule:evenodd;fill-rule:evenodd;image-rendering:optimizeQuality;shape-rendering:geometricPrecision;text-rendering:geometricPrecision"
   viewBox="0 0 3726.849 3726.8495"
   id="svg53"
   sodipodi:docname="logo.svg"
   inkscape:version="1.4.3 (0d15f75042, 2025-12-25)"
   xmlns:inkscape="http://www.inkscape.org/namespaces/inkscape"
   xmlns:sodipodi="http://sodipodi.sourceforge.net/DTD/sodipodi-0.dtd"
   xmlns="http://www.w3.org/2000/svg"
   xmlns:svg="http://www.w3.org/2000/svg"><sodipodi:namedview
   id="namedview53"
   pagecolor="#505050"
   bordercolor="#eeeeee"
   borderopacity="1"
   inkscape:showpageshadow="0"
   inkscape:pageopacity="0"
   inkscape:pagecheckerboard="0"
   inkscape:deskcolor="#505050"
   inkscape:document-units="mm"
   inkscape:zoom="1.1301881"
   inkscape:cx="389.31573"
   inkscape:cy="82.729593"
   inkscape:window-width="1463"
   inkscape:window-height="842"
   inkscape:window-x="0"
   inkscape:window-y="0"
   inkscape:window-maximized="1"
   inkscape:current-layer="图层_x0020_1" />
 <defs
   id="defs1">
  <style
   type="text/css"
   id="style1">
   <![CDATA[
    .fil0 {fill: var(--fill-color, #303A62)}
   ]]>
  </style>
 </defs>
 <g
   id="图层_x0020_1"
   inkscape:label="图层 1"
   inkscape:groupmode="layer">
  <metadata
   id="CorelCorpID_0Corel-Layer" />
  <path
   class="fil0"
   d="m 1863.39,89.29 c -977.18,0 -1774.14,796.97 -1774.14,1774.1 0,977.17 796.96,1774.19 1774.14,1774.19 977.17,0 1774.14,-797.02 1774.14,-1774.19 0,-977.13 -796.97,-1774.1 -1774.14,-1774.1 z m 0,-89.29 c 1026.31,0 1863.4,837.09 1863.4,1863.4 0,1026.35 -837.09,1863.44 -1863.4,1863.44 C 837.04,3726.84 0,2889.75 0,1863.4 0,837.09 837.04,0 1863.39,0 Z"
   id="path1" />
  <path
   class="fil0"
   d="m 2071.9,643.62 v 58.28 c 546.93,99.47 964,583.05 964,1161.49 0,650.1 -526.69,1180.33 -1172.51,1180.33 -645.83,0 -1172.51,-530.23 -1172.51,-1180.33 0,-578.48 417.11,-1062.06 964.04,-1161.54 V 643.62 C 1076.39,743.8 633.85,1253.2 633.85,1863.4 c 0,681.74 552.34,1237.73 1229.54,1237.73 677.21,0 1229.54,-555.99 1229.54,-1237.73 0,-610.15 -442.55,-1119.55 -1021.03,-1219.78 z m -208.51,-17.96 c 41.48,0 82.42,2.13 122.88,6.19 v 57.73 c -40.4,-4.27 -81.4,-6.48 -122.88,-6.48 -41.54,0 -82.52,2.25 -122.96,6.48 v -57.73 c 40.43,-4.04 81.47,-6.19 122.96,-6.19 z"
   id="path2" />
  <path
   class="fil0"
   d="m 2570.44,2692.7 c -190.64,162.8 -437.73,261.4 -707.05,261.4 -269.37,0 -516.42,-98.6 -707.01,-261.4 H 2570.45 Z M 1863.39,772.74 c 279.6,0 535.25,106.2 728.59,280.3 H 1134.76 c 193.39,-174.1 448.99,-280.3 728.63,-280.3 z"
   id="path3" />
  <polygon
   class="fil0"
   points="1986.26,632.74 1740.51,632.74 1740.51,846.9 1986.26,846.9 "
   id="polygon3" />
  <path
   class="fil0"
   d="m 2054.85,2558.73 c 37.91,-0.71 76.03,-3.7 116.52,-2.79 7.57,-2.99 7.57,-2.99 10.56,-3.45 14.01,7.81 27.56,4.37 45.93,2.53 10.6,0.92 10.6,0.92 22.12,0.92 17.47,-8.02 31.92,-5.74 53.95,-5.74 24.57,-5.73 46.44,-2.28 73.08,0.68 34.04,1.82 79.27,5.77 112.37,-9.2 12.42,-12.39 8.98,-22.07 6.89,-37 7.82,-24.11 14.01,-45.47 26.91,-66.39 0,-14 2.48,-18.62 7.35,-30.81 -6.24,-14.92 -2.54,-26.39 -7.35,-39.73 -0.96,-15.88 5.72,-29.63 5.72,-43.45 -9.39,-24.36 -8.71,-43.19 0,-66.39 0,-13.13 -7.34,-17.75 -14.7,-27.84 -6.67,-22.29 5.31,-44.81 12.41,-63.89 5.28,-38.33 0.93,-72.83 -0.95,-108.92 -2.48,-9.85 -8.89,-25.49 -12.17,-36.95 0,-24.16 13.12,-44.16 13.12,-64.81 -7.35,-13.35 -16.09,-20.5 -20.69,-32.68 0,-18.83 15.63,-33.05 15.63,-51.68 -12.9,-24.35 -23,-54.44 -21.36,-79.52 4.15,-7.35 9.43,-13.56 14.01,-20.45 1.36,-7.36 -0.22,-14.47 -0.71,-20.46 0.95,-18.37 1.86,-34 1.66,-50.75 6.4,-18.16 6.4,-18.16 9.64,-29.68 0,-34.92 -6.45,-69.84 -6.45,-104.75 0.92,-7.82 2.04,-15.43 3.21,-22.99 -4.78,-31.27 -4.78,-31.27 -8.06,-45.98 -2.75,-8.03 -9.61,-21.58 -9.61,-27.57 7.35,-10.35 5.29,-24.6 5.48,-35.62 3.7,-11.97 9.65,-22.74 11.52,-34 -2.54,-8.48 -2.54,-8.48 -9.19,-23.2 0,-7.15 0,-14.26 0,-21.37 -3.7,-12.17 -9.2,-21.15 -10.56,-31.25 -0.95,-24.62 -2.08,-49.43 -6.48,-71.26 -7.31,-17.21 -19.5,-26.64 -31.68,-36.54 -13.39,1.36 -21.16,-2.04 -31,-4.82 -16.1,0.46 -27.62,-0.46 -40.95,-3.2 -16.3,1.11 -33.34,6.44 -48.48,7.36 -64.6,0 -127.79,-10.36 -190.96,-6.67 -32.84,-6.23 -66.64,-12.22 -98.36,-4.86 -10.55,0.71 -10.55,0.71 -23.65,0 -6.66,3.21 -13.3,6.45 -19.78,9.89 -19.5,0 -37.42,-13.33 -54.01,-13.33 -29.18,9.18 -63.88,14.7 -92.57,15.62 -52.17,-11.93 -103.88,-7.32 -154.89,1.62 -21.36,13.09 -40.7,19.74 -59.98,2.53 -10.11,2.04 -18.38,0.46 -25.27,-2.53 -8.54,1.37 -7.57,9.64 -17.25,9.64 -7.78,-15.62 -18.59,-11.52 -31.94,-11.92 -5.74,-1.38 -11.47,-2.8 -17.25,-4.16 -20.2,0 -39.08,6.18 -57.42,7.35 -43.93,0 -89.62,-5.28 -131.93,-2.53 -22.99,5.06 -42.73,5.06 -63.85,5.06 -7.36,3.21 -17.25,13.35 -23.23,12.86 -3.66,-5.49 -7.58,-7.12 -10.57,-8.02 -16.28,0 -18.37,6.89 -18.37,22.49 -10.8,10.8 -15.62,21.87 -15.62,37.71 7.16,21.82 -2.09,35.87 -8.98,58.4 0,9.6 0,19.49 0,29.35 -1.58,4.86 -1.58,4.86 -8.94,17.96 0.92,17.91 16.76,40.45 4.37,58.58 -0.25,1.15 -0.46,2.53 -0.46,3.95 5.74,15.38 5.03,33.09 5.03,51.46 -4.57,38.61 -19.5,91.24 4.16,128.66 0,1.61 0,1.61 -2.55,5.78 -6.43,20.65 -0.91,39.53 2.55,63.19 0,20.91 -9.9,42.03 -14.01,63.86 0.44,36.78 0.2,74.49 2.48,113.11 1.62,9.85 4.41,19.49 4.41,31.46 -9.22,13.29 -4.16,27.56 -2.08,43.9 0,17.47 -3.2,36.29 -3.91,54.88 2.75,17.96 8.02,37.23 8.02,57.48 -2.53,5.03 -5.03,10.31 -7.31,15.63 -1.61,15.63 10.77,27.1 10.77,45.02 -11.48,18.38 -15.84,23.44 -5.07,45.07 0,2.73 0,5.47 0,8.27 -9.2,16.54 -6.2,15.13 1.61,36.74 0,14.47 -1.61,30.34 -1.61,47.55 3.49,26.9 9.22,55.62 0.95,83.68 0,29.39 8.02,58.57 8.02,90.04 -8.27,33.8 -6.66,53.07 15.62,82.3 15.18,-0.7 28.51,2.74 44.81,5.73 16.09,0 32.84,-2.78 49.38,4.13 6.23,-2.28 9.2,-3.2 17,-3.2 32.68,9.38 65.96,5.03 99.05,17.91 8.49,0 18.17,-2.28 27.15,-4.82 6.66,0.25 13.52,0.46 20.41,0.93 8.07,-1.83 16.34,-3.46 24.61,-5.08 19.08,0 35.62,8.98 55.83,8.98 5.73,-1.61 9.18,-3.7 13.09,-4.82 7.15,0.93 48.96,-0.45 53.33,12.9 12.63,-4.16 23.45,5.03 38.37,-2.33 8.98,0 17.22,3.45 28.73,3.45 22.28,-9.19 51.46,-12.89 76.98,-8.27 9.65,3.7 17.66,9.9 30.31,9.9 14.04,-5.08 14.04,-5.08 25.52,-8.28 28.73,0 40.9,0.91 104.8,0.91 8.93,1.39 17.46,2.96 28.01,5.74 13.56,-4.81 29.44,-3.45 45.06,-3.45 6.66,2.53 14.47,4.62 23.66,6.23 z m 285.16,87.31 c 0,-0.71 0,-0.71 -45.01,-11.48 -14.47,-2.32 -25.98,-3.24 -39.33,-3.24 -5.69,0.66 -12.18,2.53 -17.21,2.53 -11.47,-5.74 -14.05,-2.53 -25.27,0.71 -17.96,-0.46 -33.8,-2.58 -50.09,-2.58 -14.5,4.86 -34.04,-4.33 -44.35,-8.94 -23.45,10.15 -40.45,9.69 -62.31,0 -21.08,0 -37.92,12.43 -57.21,12.43 -25.53,-6.66 -46.64,-5.52 -69.59,-6.66 -5.77,-1.61 -12.42,-4.85 -19.07,-6.45 -8.98,0 -8.98,0 -27.81,1.59 -28.52,-1.17 -57.7,-4.13 -84.34,-0.93 -6.45,3.46 -12.65,7.16 -18.83,10.81 -13.56,0 -19.34,-11.06 -29.68,-13.34 -9.39,0 -18.59,0 -27.81,0 -27.1,4.14 -38.33,7.6 -41.78,7.6 -18.15,-6.89 -32.16,-6.69 -49.22,-6.69 -17.21,3.24 -28.72,6.69 -37.67,8.27 -13.08,0 -20.65,-2.04 -30.34,-6.65 -8.02,0 -8.72,3.7 -14.71,6.65 -38.12,-0.2 -73.29,2.09 -108.22,-6.65 -15.16,6.65 -23.19,7.16 -35.62,-1.62 -7.56,3.7 -35.87,0.95 -41.36,0.95 -12.63,3.46 -25.27,9.61 -37.71,9.61 -23.89,-6.15 -48.22,2.12 -69.58,-3.16 -15.43,-8.98 -33.6,-9.22 -44.4,-17.25 -19.05,-19.79 -38.12,-39.54 -56.95,-59.28 -2.53,-14.51 -8.32,-26.23 -13.09,-38.16 12.6,-22.95 1.37,-52.17 -3.24,-74.24 0.21,-14.22 2.08,-21.13 -4.83,-31.47 0,-4.36 0,-8.73 0,-13.08 4.37,-2.99 7.57,-77.66 8.07,-85.73 5.03,-18.15 4.36,-18.62 0,-36.08 0,-8.47 4.58,-15.16 5.74,-21.82 -2.28,-6.69 -4.62,-13.34 -6.66,-20 -0.95,-31 3.87,-63.19 5.03,-92.57 -1.37,-7.4 -2.53,-11.76 -2.53,-17.25 3.19,-10.61 3.19,-10.61 4.15,-17.26 -11.07,-31.72 -3.25,-50.09 -3.25,-82.72 -2.74,-12.64 0.71,-15.84 5.79,-25.27 0,-13.8 -6.69,-25.28 -6.69,-37 5.06,-18.17 1.61,-30.81 1.61,-46.65 2.99,-14.47 1.16,-21.16 -3.2,-32.83 0,-12.9 5.95,-22.32 1.59,-33.55 0,-9.47 2.78,-15.62 4.81,-22.99 0,-17.25 0.49,-28.28 5.07,-42.53 0,-8.98 -2.99,-15.62 -5.07,-22.28 -0.92,-15.62 4.62,-26.19 6.69,-39.32 -3.24,-8.27 -6.69,-14.72 -7.35,-17.91 0,-9.85 0,-19.75 0,-29.6 5.94,-20.95 8.27,-21.87 -0.96,-39.32 0,-11.26 2.8,-15.63 6.69,-24.61 0,-12.39 -9.88,-20.91 -9.88,-30.31 11.97,-18.4 14.46,-13.34 1.61,-30.34 0,-2.53 0,-2.53 2.54,-10.59 0,-23.2 -5.74,-44.56 -5.74,-66.39 8.48,-19.29 11.22,-48.72 5.74,-67.34 -2.28,-4.58 -4.62,-9.2 -6.66,-13.76 0,-17.25 8.24,-28.97 8.24,-43.45 -1.59,-4.14 -4.58,-7.82 -5.74,-11.51 4.15,-17.67 5.52,-22.95 0,-37.67 3.19,-7.35 3.19,-7.35 11.51,-20.9 0,-38.83 6.86,-74.46 12.63,-111.25 18.38,-17.45 26.2,-29.39 50.09,-35.62 8.49,-0.22 19.09,0.49 28.27,-4.57 7.57,-7.57 18.39,2.99 29.85,2.99 10.6,-3.46 17.25,-6.67 29.68,-6.67 34,6.45 70.3,11.48 107.29,11.48 24.61,-1.87 48.48,-5.74 74.7,0 10.56,0 17,-4.36 26.19,-10.55 3.91,0 3.91,0 11.47,1.62 25.94,-1.17 43.19,-12.68 69.63,0 16.54,0 29.88,-4.86 48.26,2.48 13.09,1.42 32.63,-7.1 46.65,-11.46 16.79,0 34.25,3.19 53.33,3.19 10.55,-4.57 7.81,-8.98 20.45,-3.19 31.68,4.57 65.02,0.91 97.64,12.17 19.29,-0.91 38.38,-9.64 59.74,-9.64 23.89,11.92 47.56,10.81 75.36,6.45 4.86,0 9.89,0 14.97,0 6.39,1.58 13.79,5.03 21.57,6.65 12.88,-1.37 23.44,-3.9 35.62,-11.51 4.61,-0.46 9.2,-0.68 14.05,-0.93 17.88,-11.02 30.55,-8.98 52.34,-8.98 9.93,1.87 16.14,8.98 28.77,8.98 14.67,-5.28 14.42,-10.1 30.31,-1.61 6.48,0 13.13,0 19.78,0 12.19,3.24 22.03,8.31 36.79,8.31 7.31,2.5 14.67,8.27 24.11,3.66 13.3,-15.17 16.05,-15.63 36.54,-21.37 0.93,0 2.04,0 3.21,0 21.57,15.63 58.61,11.26 85.25,14.26 12.39,3.46 12.39,3.46 20.46,6.67 11.21,-4.36 13.8,-8.28 27.1,-8.28 14.72,2.04 29.17,3.46 45.98,3.46 4.36,2.28 8.68,4.82 13.09,7.35 8.73,0 18.58,-2.28 28.27,1.82 26.39,21.17 51.46,47.1 61.32,82.93 0.95,18.17 -0.66,26.23 11.51,43.45 3.66,27.81 1.62,60.69 0.92,90.99 -1.36,9.69 -3.91,18.17 -9.64,27.35 0,18.64 0.91,31.72 11.47,50.09 0,29.44 4.37,55.42 -11.02,83.18 0,5.08 4.15,9.66 4.15,16.34 -3.24,9.19 -3.24,9.19 -4.15,15.62 1.41,41.82 0,87.55 -0.66,131.21 -3.46,27.35 -8.53,50.34 0,78.6 0.87,25.74 -3.46,54.21 -1.62,82.01 1.83,12.19 11.72,24.16 15.17,39.29 0,5.77 0,11.51 0,17.25 -5.06,22.07 -11.06,46.89 -11.06,70.55 3.2,7.81 6.44,13.09 6.44,23.7 -4.36,24.11 0.92,46.64 -8.93,71.21 -3.46,25.72 -4.16,54.91 4.11,81.34 1.17,18.63 -9.88,40.24 -3.45,59.74 7.36,13.59 11.02,18.62 5.03,34.46 -0.88,8.07 -0.88,8.07 -0.88,21.16 -3.24,13.34 -7.6,20 -1.61,34.47 2.74,2.99 2.74,2.99 3.2,5.07 -0.71,4.81 -0.71,4.81 0,66.42 -2.49,5.49 -5.03,11.22 -7.35,16.96 0,33.13 8.31,66.42 8.31,101.85 -2.32,11.47 -8.56,21.32 -9.93,35.13 -0.21,11.26 0.25,24.36 -2.24,36.99 -12.89,36.09 -28.97,60.69 -66.93,69.18 -12.63,0.91 -25.23,2.08 -37.66,3.19 -17.22,4.62 -34.47,9.2 -51.68,14.06 -22.53,0 -46.64,-6.45 -66.43,-1.62 -6.89,3.46 -19.53,11.48 -19.53,12.19 -3.65,0 -7.35,0 -10.81,0 v 0 z"
   id="path4" />
  <path
   class="fil0"
   d="m 2298.45,2398.1 c -5.29,-0.71 -10.56,-1.16 -15.62,-1.66 -4.36,-34.91 -3.92,-69.59 -3.92,-102.47 0,-1.16 -0.95,-56.28 6.91,-64.1 17.91,0 38.11,-1.83 58.31,1.12 6.49,53.34 6.24,110.32 0.96,164.79 -8.32,1.16 -8.32,1.16 -46.65,2.32 z"
   id="path5" />
  <path
   class="fil0"
   d="m 1468.9,2176.08 c -8.06,-1.37 -23,-3.86 -25.99,-8.27 -0.7,-11.47 -0.7,-68.67 0,-79.48 1.83,-7.56 26.44,-9.64 34.26,-10.35 36.08,0 72.15,0 108.21,0 8.98,0.71 18.87,1.83 30.14,4.61 3.2,29.19 2.03,59.49 0,90.3 -49.43,5.28 -98.6,2.99 -146.61,3.19 z"
   id="path6" />
  <path
   class="fil0"
   d="m 1463.12,1893.21 c -13.1,-2.75 -13.1,-2.75 -18.83,-4.78 -4.37,-23.7 -2.28,-48.27 -1.38,-71.26 1.63,-7.14 17,-8.27 24.38,-9.69 36.99,0 74.23,0 111.44,0 5.73,0.96 10.6,2.55 16.75,5.28 0.71,20.04 5.53,54.26 -1.78,76.54 -1.87,1.17 -1.87,1.17 -17.5,3.46 -37.66,0 -75.36,0.25 -113.06,0.46 z"
   id="path7" />
  <path
   class="fil0"
   d="m 2327.88,1709.63 c -8.3,-1.62 -14.5,-3.45 -19.78,-6.23 -17.47,-2.04 -34.92,-3.91 -52.43,-5.74 -35.58,0 -72.12,3.46 -104.75,-5.94 -2.08,-28.07 -8.28,-60.91 -2.32,-86.88 4.61,-10.81 4.61,-14.46 17,-14.46 18.4,8.72 37.24,20.19 55.15,34.91 20.01,22.07 56.33,47.1 90.8,38.58 7.34,-20.66 0.7,-25.74 -10.11,-40.66 -2.79,-4.57 -5.32,-9.19 -7.86,-13.76 -24.52,-17.96 -54.92,-44.8 -81.35,-53.54 -22.95,-3.24 -43.61,-11.73 -63.15,-18.41 -1.37,-25.49 -4.41,-51.93 2.28,-74 17.66,-11.02 42.49,0.45 62.48,6.44 32.68,3.46 70.8,-2.99 88.97,34.92 4.11,5.28 9.43,9.43 17.2,14.47 11.26,12.88 5.54,28.05 23.45,40.9 4.36,16.54 2.04,35.21 7.56,55.17 7.87,18.86 12.19,24.81 7.4,46.64 -0.25,12.43 3.41,37.7 -10.15,47.14 -6.89,0 -13.74,0.21 -20.41,0.45 z"
   id="path8" />
  <path
   class="fil0"
   d="m 1503.35,1622.09 c -21.82,-1.42 -41.81,-3.26 -61.56,-5.79 -0.95,-30.1 -4.41,-62.23 1.36,-89.63 49.65,-5.28 100.18,-3.65 151.91,-0.66 4.57,20.2 2.07,45.52 2.99,68.93 -6.69,30.56 -76.08,26.89 -94.7,27.15 z"
   id="path9" />
  <path
   class="fil0"
   d="m 2317.94,2436.69 c 11.52,-0.46 23,-0.93 34.46,-1.38 14.01,-1.59 14.01,-1.59 15.63,-2.54 3.46,-4.36 4.87,-11.46 10.61,-13.34 3.65,-58.32 1.15,-118.55 1.15,-175.3 -3.19,-29.88 -2.32,-50.8 -33.09,-55.37 -27.35,0.41 -55.41,2.75 -81.35,2.75 -14.27,17.92 -17,26.2 -19.08,50.09 1.12,57.9 -2.08,118.8 10.35,177.83 19.5,10.59 35.84,14.05 61.32,17.26 z m -455.69,-4.82 c 19.34,-16.54 21.63,-44.81 23.24,-68.05 0,-45.24 0,-90.3 0,-135.36 -2.54,-15.34 -4.58,-25.72 -10.81,-36.95 -21.36,-2.53 -26.39,-3.91 -29.17,16.54 1.36,37.46 0.2,76.74 -0.93,115.56 0,36.34 -5.74,75.17 17.66,108.26 v 0 z m 118.85,-117.19 c 18.59,-0.25 36.04,1.12 55.83,-1.62 1.38,-19.54 9.39,-68.93 -3.9,-82.27 -19.09,-8.02 -43.69,-2.53 -61.82,-1.38 -1.17,25.74 -7.36,61.32 9.88,85.27 v 0 z m -12.17,119.47 c 69.62,-0.42 69.62,-0.42 91.9,-1.38 2.99,-5.94 5.95,-11.73 9.19,-17.45 -2.79,-61.36 5.95,-122.27 1.62,-182 -4.41,-22.29 -5.52,-26.64 -21.62,-38.17 -36.99,-11.26 -77.2,-12.85 -109.16,7.36 -0.45,38.83 -6.89,85.71 6.44,126.16 27.78,17.66 59.53,19.29 93.54,20 -0.7,16.55 2.99,32.84 0.92,51 -18.41,9.2 -40.69,4.63 -59.07,2.99 -20.66,0 -24.36,-1.16 -39.49,7.57 -1.2,17.71 7.31,20.46 25.74,23.9 v 0 z m -675.38,79.52 c -17,-2.75 -21.83,-4.82 -33.09,-12.88 -0.46,-14.23 -0.71,-28.48 -0.92,-42.74 2.74,-14.93 9.19,-29.89 13.08,-43.41 0,-17.49 -6.65,-28.97 -6.65,-43.43 2.08,-9.9 4.36,-19.8 6.65,-29.65 -0.44,-9.69 -0.71,-19.33 -0.91,-28.76 5.94,-12.19 14.92,-19.04 11.48,-31.01 -10.11,-16.75 -11.48,-17.46 -11.48,-33.55 6.45,-13.75 0,-19.99 0,-31.22 2.75,-12.89 5.52,-25.74 8.27,-38.61 0,-26.23 -2.99,-49.89 0,-73.79 -16.34,-25.07 -23.2,-20.65 -9.19,-45.02 3.91,-12.42 4.32,-25.97 8.27,-38.37 10.55,-17 3.46,-36.99 0,-54.24 -1.16,-24.83 5.74,-48.52 5.74,-71.26 -7.35,-23.2 -17.91,-59.74 -8.27,-81.1 7.56,-11.47 7.56,-11.47 9.19,-15.62 1.37,-14.47 16.3,-16.09 16.3,-24.62 -8.24,-10.55 -22.96,-10.55 -15.64,-25.27 13.09,-14 13.09,-13.75 -1.33,-26.15 -3.03,-9.01 -1.86,-16.58 -1.86,-23.94 -3.66,-15.38 -10.36,-28.26 -1.38,-40.65 0,-9.19 -1.83,-14.72 -2.75,-22.54 0.22,-22.99 0.46,-45.93 0.92,-68.71 -2.08,-16.54 3.91,-25.23 4.82,-39.28 -2.08,-8.52 -3.91,-17 -5.74,-25.53 0.22,-13.08 0.46,-26.18 0.92,-39.23 -1.62,-7.4 -1.62,-7.4 -8.27,-25.53 -2.53,-16.79 1.83,-27.8 4.16,-42.52 -0.97,-10.81 -2.58,-18.83 -2.58,-28.02 7.34,-23.45 6.68,-44.61 11.51,-67.13 8.98,-17.93 25.03,-32.38 43.89,-39.74 9.86,0 19.75,0 29.65,0 17.71,-6.19 26.42,-15.84 46.64,-10.77 23.89,14.47 44.6,15.58 73.79,7.57 16.09,-8.06 10.76,-6.68 30.29,0 17.05,2.99 42.53,8.68 60.24,-2.33 42.27,3.46 84.76,-7.56 129.11,-7.56 11.48,1.12 24.83,3.46 37.24,11.73 29.85,0.91 65.93,6.18 97.19,-1.83 7.12,-4.4 5.99,-5.78 14.72,0 18.37,0 22.03,-15.88 42.49,-6.68 14.51,9.42 16.8,10.59 36.12,10.59 24.1,-4.58 42.49,-12.89 67.96,-5.78 13.39,0 27.15,0.95 41.87,-1.58 8.93,-4.37 16.09,-9.9 27.05,-9.9 15.46,4.58 29.47,12.9 47.59,8.95 0.26,0.71 0.51,1.41 0.71,2.32 -2.99,0 -5.99,0 -8.93,0 -7.61,15.37 -21.88,24.1 -26.69,41.81 -3.9,31.47 1.58,61.82 1.58,94.91 -2.04,17 -0.62,17.66 -15.13,21.83 -8.52,0 -17,0 -25.27,0 -8.31,3.24 -16.54,6.44 -24.57,9.89 -22.06,2.75 -26.42,2.75 -42.77,13.09 -21.83,3.91 -46.18,15.17 -58.62,34 -4.11,11.51 -8.27,16.54 -17.2,24.36 -5.99,9.44 -7.16,18.62 -12.64,29.18 -9.9,13.09 -9.9,13.09 -11.97,17 -3.46,20.04 -0.41,43.64 -6.45,63.89 -7.31,14.71 -9.64,17.46 -14.01,25.26 -4.82,24.38 0.96,58.13 -10.56,81.11 0.46,11.76 0.71,15.88 -5.72,27.1 0.69,11.51 0.69,11.51 0,19.78 -2.99,7.83 -6.2,14.47 -7.83,23.66 -21.57,-2.28 -36.54,-12.84 -53.99,-17.67 -48.72,-7.14 -99.72,-3.19 -147.53,-3.19 -96.75,1.58 -96.75,1.58 -159.96,1.58 -17.92,-3.2 -17.92,-3.2 -20.66,-4.37 -4.82,-28.92 -3.45,-60.89 0.7,-88.7 8.28,-2.75 19.05,-2.75 29.85,-3.65 40.45,-0.46 83.44,0.91 125.51,-6.45 16.3,-9.65 33.75,-6.9 48.47,-20 6.9,-15.13 16.8,-28.27 20.65,-42.74 0,-42.26 -7.31,-51.71 27.36,-73.33 16.33,-4.31 34.92,-3.9 53.34,-4.12 14.01,-1.17 55.61,-3.7 65.92,-16.8 -2.75,-19.29 -34.2,-22.94 -47.1,-25.03 -38.37,0 -59.74,0.93 -311.35,1.62 -12.9,-1.16 -23.7,-4.15 -33.09,-9.19 1.58,-22.99 10.1,-41.86 16.95,-62.53 4.87,-25.26 4.41,-19.08 27.62,-29.17 103.87,-28.98 218.52,12.18 323.77,-25.77 -7.81,-17.47 -31.92,-18.83 -45.93,-20.87 -16.8,-1.16 -33.58,-2.28 -50.13,-3.24 -153.97,-1.58 -153.97,-1.58 -164.53,-0.92 -8.27,2.07 -16.54,4.36 -24.56,6.69 -19.75,0.41 -39.08,0.87 -57.46,4.81 -19.28,7.82 -38.62,15.63 -57.91,23.4 -6.45,11.48 -6.45,11.48 -11.97,19.34 -8.98,9.64 -8.98,9.64 -10.1,11.93 -4.81,27.8 -18.11,54.46 -23.89,84.34 0,8.02 0,16.34 0,24.56 4.14,19.54 9.22,36.54 9.22,59.07 1.37,5.29 6.15,12.19 10.51,18.83 2.53,9.2 3.24,19.33 4.15,31.01 -0.7,242.93 -1.16,485.83 -1.62,728.71 1.84,33.34 6.25,65.93 13.1,100.89 3.9,9.85 4.85,14.22 18.41,14.22 20.66,-6.19 34,-25.04 40.66,-44.57 6.44,-54.66 0,-106.83 0,-160.62 0.91,-7.61 1.83,-14.92 2.79,-22.28 7.81,-2.08 15.83,-4.16 23.85,-5.99 42.07,-2.99 83.89,1.82 127.08,-4.12 19.29,-4.37 38.62,-8.76 58.15,-13.13 7.6,-2.95 15.63,-6.9 20.01,-14.47 2.28,-15.17 11.21,-20.2 18.82,-32.63 0.45,-24.36 0,-46.89 3.65,-68.93 37.25,-20.46 80.24,-7.16 119.07,-26.89 2.07,-22.74 -49.19,-27.37 -61.62,-28.48 -92.57,0.21 -185.19,0.41 -277.81,0.87 -10.8,-0.87 -20.44,-3.41 -28.92,-5.94 0,-28.93 -11.48,-59.99 1.58,-84.1 20.24,-12.63 59.53,-8.27 82.98,-8.27 22.53,0.92 47.79,3.91 72.15,0 8.03,-3.46 16.3,-6.69 24.57,-9.9 6.89,-0.44 17.25,0 23.23,-5.94 7.57,-14.96 12.85,-22.78 17.46,-31.26 5.95,-45.77 -7.14,-68.97 43.86,-86.64 14.72,-2.32 31.75,-4.36 48.3,-5.77 53.29,-0.68 53.29,-0.68 68.92,-1.83 -0.69,37.45 -4.61,78.1 1.84,117.88 3.46,9.19 9.88,21.37 13.09,30.35 2.53,12.6 0.25,27.3 7.11,41.31 12.18,11.27 15.42,14.72 19.34,34.04 1.82,2.99 3.9,6.2 5.94,9.4 7.15,6.65 14.72,10.35 16.59,23.44 11.22,5.53 24.57,22.99 34.21,34.71 26.9,20.91 59.94,41.82 91.9,59.99 20.2,9.64 28.98,16.55 52.42,6.19 0,-23.24 -1.61,-27.35 -15.62,-43.9 -27.56,-22.03 -61.85,-42.93 -90.54,-58.61 -16.34,-19.97 -28.27,-42.49 -42.49,-60.65 -2.07,-8.98 -2.07,-17.01 -2.58,-24.62 -4.57,-11.46 -12.63,-20.19 -16.33,-29.39 -5.44,-43.44 -4.08,-86.38 -4.08,-127.99 1.59,-45.99 3.21,-91.91 4.78,-137.63 1.88,-12.19 7.16,-18.83 14.05,-29.44 3.66,-19.75 1.84,-38.61 5.74,-55.83 3.24,-8.27 14.72,-29.39 17.92,-37.7 0.71,-9.85 2.32,-17 5.03,-24.56 12.01,-16.81 29.23,-29.44 42.07,-45.28 1.61,-0.92 3.2,-1.82 5.07,-2.74 17.22,-4.36 59.78,-25.07 80.43,-10.35 4.57,22.28 2.75,48 2.5,72.36 -31.68,23.2 -69.39,47.81 -99.73,73.54 -7.56,7.81 -15.12,15.63 -22.5,23.44 -6.23,11.02 -4.81,26.19 -5.06,40.2 13.09,13.09 40.24,-1.37 54.25,-9.88 11.27,-12.6 22.54,-27.57 37.91,-37 6.44,-12.14 11.97,-29.85 30.1,-19.54 14.01,20.24 4.81,64.14 2.53,87.34 -31.26,8.72 -62.01,1.61 -91.04,6.9 -20.41,7.36 -47.51,13.35 -20.41,34.46 4.78,2.08 9.65,4.16 14.72,6.45 23.4,4.61 47.31,0.91 72.83,0.91 23.89,2.54 25.27,2.33 26.64,29.9 0.45,54.24 0.95,108.65 1.58,163.11 -0.87,7.6 -2.23,15.88 -6.85,24.15 -6.45,6.45 -14.72,4.37 -20.46,2.09 -5.53,-16.34 -5.53,-16.34 -9.19,-24.16 -21.62,-21.57 -18.37,-32.16 -18.37,-60.19 2.08,-27.09 5.73,-55.61 2.54,-80.43 -5.79,-21.83 -27.4,-45.73 -47.34,-29.64 -13.14,24.37 -14.27,50.34 -14.27,78.82 6.65,55.86 8.28,77.2 9.85,84.55 3.7,5.99 10.13,13.35 15.62,21.4 5.52,19.5 4.86,17.47 19.54,32.65 14.26,19.48 17.46,27.76 44.8,30.76 45.77,0.71 92.16,2.99 140.18,0 10.8,-1.59 22.11,-8.28 32.87,-12.39 21.36,-1.83 18.37,-2.54 30.1,-22.99 5.78,-5.53 11.93,-10.1 17,-15.89 2.99,-21.57 6.66,-27.3 17.92,-45.93 0.91,-3.46 2.13,-6.65 3.24,-9.85 1.37,-35.21 18.12,-110.53 -24.1,-127.33 -20.7,0 -31.51,21.37 -42.33,35.63 -11.01,27.76 -2.28,58.36 -9.64,89.37 -10.09,15.84 -19.29,22.98 -20.9,40.91 -9.2,1.37 -17.26,13.55 -24.61,19.29 -7.35,2.32 -13.56,2.32 -19.75,1.17 -3.65,-8.02 -3.65,-8.02 -5.28,-14.72 0,-64.56 0,-129.13 0,-193.48 3.45,-14 7.31,-14.26 23.44,-15.87 33.55,0 67.09,0 100.65,0 20.45,-1.62 40.44,-9.66 62.26,-13.09 2.96,-1.84 18.12,-13.81 23.24,-12.19 6.41,10.35 8.48,23.45 10.77,37.2 -0.26,44.86 4.62,97.95 -8.98,143.41 -2.29,5.99 -7.32,13.35 -11.48,19.54 -2.99,19.53 4.15,30.1 -14,45.06 -7.36,10.77 -6.45,21.12 -12.19,33.76 -11.97,17.25 -18.63,20.44 -20.91,41.82 -25.53,12.42 -48.93,29.17 -76.06,36.78 0,3.46 -34.22,28.02 -34.93,28.47 -9.64,9.89 -12.22,19.8 -20.24,30.81 -8.02,7.11 -10.55,10.11 -15.13,20.2 -5.99,25.98 -15.38,50.09 -15.38,77.9 2.94,18.62 -1.87,36.75 -1.87,57.45 3.24,14.06 0,24.81 0,40.04 7.56,24.56 5.99,51.42 13.35,79.48 3.41,8.47 7.82,29.63 22.73,20.44 2.5,-2.78 5.28,-5.52 8.02,-8 1.16,-34.51 4.15,-70.8 2.78,-103.44 -4.14,-14.71 -3.69,-20.44 -0.95,-33.53 0,-16.1 0,-32.21 0,-48.27 4.66,-39.53 20.04,-77.44 47.86,-105.25 40.4,-22.98 81.76,-47.35 121.5,-71.92 3.92,-9.88 6.04,-16.33 12.9,-23.89 12.89,-7.35 13.08,-11.52 16.13,-25.31 4.78,-7.58 11.22,-14.43 16.5,-22.03 2.09,-11.03 1.62,-22.07 5.99,-31.72 11.22,-13.56 12.18,-15.59 15.17,-31.46 0,-91.46 4.78,-182.92 -1.62,-272.08 -3.9,-27.35 -12.17,-54.92 -17.2,-79.52 -0.5,-16.76 0.21,-30.77 -6.23,-43.91 -11.03,-14.26 -11.03,-14.26 -12.6,-17.45 -5.52,-33.09 -31.5,-51.47 -56.13,-67.8 -13.55,-6.2 -25.47,-10.31 -36.74,-17.22 -12.64,-2.75 -23.9,-2.07 -35.37,-2.28 -33.59,-9.88 -33.59,-9.88 -41.81,-11.51 -22.78,-1.83 -57.25,5.52 -65.06,-18.37 -2.99,-29.44 0.91,-57.96 4.15,-85.27 0,-11.26 0,-22.49 0,-33.55 -8.98,-12.88 -19.34,-13.79 -28.48,-21.35 0,-0.71 0,-1.37 0,-2.08 8.24,-8.27 25.03,-0.92 37.87,-0.92 22.07,-6.9 22.74,-6.19 45.72,6.68 17.47,4.33 42.98,2.04 61.61,-5.06 2.99,-0.25 5.95,-0.46 8.94,-0.71 17.03,3.7 31.04,-2.53 49.17,-2.53 12.68,3.24 26.44,8.3 41.87,8.3 21.78,-7.39 21.57,-11.05 42.69,0.68 16.58,2.53 36.79,-2.09 54.5,1.11 13.09,16.33 13.79,36.57 16.29,58.4 4.85,25.53 8.52,37.21 -1.62,63.2 0,2.28 0,4.82 0,7.35 12.43,25.03 11.26,59.07 0,85.96 0,8.24 3.24,28.24 -3.87,37.21 0,2.48 2.29,7.11 3.87,13.55 0.49,16.8 -0.88,34.21 -0.88,53.29 1.59,7.82 10.81,15.88 10.81,26.23 -10.81,18.63 -9.93,19.5 -7.6,44.36 -0.71,12.14 -1.17,24.36 -1.62,36.74 2.75,15.63 17.47,24.11 8.27,42.74 -5.74,7.35 -5.74,7.35 -8.98,13.09 1.16,19.08 -3.46,39.54 2.33,59.78 5.28,9.64 5.73,15.13 5.73,28.02 -3.45,15.16 -9.64,31 -5.73,48.25 6.65,18.17 6.65,18.17 7.6,22.99 0,29.14 -20.03,51.02 -10.81,82.74 0,7.56 -0.7,14 -2.58,22.94 2.33,8.98 5.08,17.25 5.79,28.73 -9.23,49.18 5.73,99.72 -9.65,150.77 -1.17,2.29 -2.29,4.61 -3.46,6.9 3.46,17.92 20.7,30.06 20.7,53.08 -3.46,5.28 -6.69,10.77 -9.93,16.29 0,22.99 5.07,42.98 0,68.67 0.25,27.86 -0.88,56.54 -0.88,86.22 2.75,9.85 13.06,8.73 13.06,23.65 -8.03,15.18 -7.78,16.09 0,34.47 0,10.81 -16.51,20.24 -25.74,23.44 -14.41,0 -25.03,-2.95 -38.61,0 -14.93,0 -28.68,-5.03 -41.57,-8.23 -15.84,0.21 -31.68,0.41 -47.56,0.88 -26.43,-7.82 -48.97,0.66 -73.08,-4.12 -11.47,-5.08 -11.47,-5.08 -15.42,-5.74 -22.49,1.83 -49.59,6.19 -68.93,-2.53 -3.2,0 -3.2,0 -28.72,6.65 -27.1,3.65 -55.83,6.4 -82.03,7.35 -33.79,-7.11 -72.62,-1.83 -104.79,2.28 -14.47,0 -26.64,-1.58 -39.28,-1.58 -52.66,9.4 -106.88,12.59 -158.34,8.94 -8.02,-1.82 -14.72,-3.21 -21.12,-3.21 -19.07,6.2 -37.46,1.17 -53.78,8.28 -26.44,-7.6 -50.55,-3.24 -74.91,-3.24 -15.63,-3.46 -15.63,-3.46 -18.83,-5.04 -7.61,1.39 -14.96,2.75 -22.33,4.13 -32.84,0 -63.19,-5.73 -94.2,-5.73 -33.75,5.52 -65.92,3.19 -97.44,5.73 -31.71,4.15 -61.35,8.06 -90.99,9.43 v 0 z"
   id="path10" />
  <path
   class="fil0"
   d="m 358.24,1690.17 c 27.85,0 50.54,22.69 50.54,50.51 0,27.86 -22.69,50.52 -50.54,50.52 -27.81,0 -50.51,-22.65 -50.51,-50.52 0,-27.81 22.69,-50.51 50.51,-50.51 z"
   id="path11" />
  <path
   class="fil0"
   d="m 3337.9,1690.17 c 27.76,0 50.46,22.69 50.46,50.51 0,27.86 -22.69,50.52 -50.46,50.52 -27.86,0 -50.52,-22.65 -50.52,-50.52 0,-27.81 22.65,-50.51 50.52,-50.51 z"
   id="path12" />
  <path
   class="fil0"
   d="m 1324.65,434.57 c -3.37,-7.52 -6.73,-15.14 -9.89,-22.62 -2.12,-5.64 -4.66,-12.22 -6.9,-16.74 -4.4,-3.46 -4.7,-1.59 -7.19,1.65 -2.67,5.74 -3.91,6.69 -2.59,13.17 -0.61,10.56 -4.65,21.09 -6.68,31.51 -1.07,3.75 -2.12,7.53 -3.08,11.23 -0.29,3.19 -1.03,5.44 1.75,8.35 6.07,2.28 13.48,4.82 21.29,8.14 2.16,1.33 6.06,2.33 7.24,6.86 -0.3,4.57 -2.04,9.69 -6.04,11.69 -4.15,0.17 -8.19,0.25 -12.18,0.49 -1.37,0.71 -2.62,1.29 -3.87,1.91 -0.74,0.88 -1.37,1.71 -1.99,2.5 -0.79,2.28 -3.5,10.59 3.04,9.64 6.85,-3.36 12.84,-8.56 22.56,-7.52 4.7,2.29 10.44,6.66 13.55,12.97 -1.17,5.99 -3.03,11.18 -8.27,13.81 -1.78,1.53 -2.86,2.07 -2.7,4.52 1.28,1.96 0.41,1.88 4.52,3.25 2.33,0.26 4.71,0.62 7.12,0.96 1.42,-0.18 4.04,-0.81 6.77,-2.13 0.83,0.29 2.54,3.03 4.53,4.61 3.53,-0.03 8.81,-0.41 11.73,-5.28 0.37,-1.37 0.49,-3.16 0.25,-4.36 -4.19,-16.54 -8.81,-33.22 -15.43,-47.39 -3.73,-9.27 -7.35,-18.41 -10.84,-27.64 -0.84,-1.61 -1.62,-3.29 -2.36,-4.81 -0.22,-0.37 -0.34,-0.67 -0.46,-0.92 -0.71,0.32 -3.46,-6.69 -3.46,-6.69 -0.21,-0.36 -0.41,-0.79 -0.41,-1.16 z m -35.37,142.34 c 0.33,1.36 0.79,2.65 1.32,4.11 -1.82,8.44 -7.27,19.62 -12.22,26.15 -2.83,2.62 -5.64,5.2 -8.35,7.73 -2,2.5 -3.41,5.91 -5.4,8.11 -5.57,4.27 -5.33,-2.86 -5.28,-5.28 1.86,-10.32 6.89,-19.25 9.22,-29.11 -0.08,-0.82 -0.13,-1.65 0,-2.4 -2.17,-4.74 -4.32,-9.47 -6.28,-14.18 -0.54,0.3 -0.95,0.5 -1.28,0.83 -1.66,3.21 -3.34,6.45 -4.95,9.77 -4.57,10.82 -9.19,21.58 -13.79,32.4 -0.34,0.32 -0.68,0.66 -0.88,0.95 0.33,-9.41 0.88,-18.72 1.42,-28.03 -0.27,-2.23 -0.3,-4.44 -0.38,-6.65 0.29,-1.83 -0.04,-4.28 -1.38,-5.28 -3.49,0.53 -7.02,1.03 -10.31,1.66 -5.61,-0.67 -5.61,-1.71 -7.23,-5.03 -0.45,-3.66 0.45,-7.73 -0.79,-10.32 -1.95,-1.11 -3.7,-2.28 -5.4,-3.32 -3.46,-5.33 -3.16,-9.89 -4.19,-15.18 5.28,-1.79 6.56,-9.19 6.48,-13.79 -1.28,-7.24 -4.44,-12.68 -10.4,-15.01 -7.78,-1.5 -16.46,-1.83 -22.28,-3.24 -8.1,-5.74 -14.3,-11.38 -18,-18.96 -2.36,-2.4 -5.28,-1.37 -6.24,-0.88 1.25,9.49 0.59,19.67 4.75,29.77 0.66,1.38 1.34,2.75 2.21,4.2 1.78,2.53 4.49,5.64 7.28,8.52 6.69,5.61 18.09,13.18 16.63,24.11 -0.5,0.75 -0.95,1.5 -1.25,2.32 -5.32,5.16 -11.47,3.42 -16.75,2.41 -1.96,-0.92 -3.96,-1.82 -5.79,-2.78 -5.74,-1.96 -5.65,6.18 -5.9,8.52 0.67,3.79 1.38,7.7 2.12,11.6 2.09,5.99 6.74,9.85 13.88,12.98 3.83,1.2 12.32,2.48 15.85,7.6 0.74,1.5 1.5,2.99 2.28,4.66 0.08,1.87 0.33,3.74 0.61,5.7 -2.07,8.35 -9.72,14.67 -16.46,17.96 -5.4,0.79 -9.26,-1.42 -12.39,-2.62 -1.91,0.29 -2.36,0.71 -3.16,1.54 -0.74,3.66 -1.58,7.27 -2.2,10.85 -0.91,6.1 -0.95,11.56 0.92,18.5 3.16,6.49 9.88,8.6 18.12,10.51 4.49,0.37 7.68,1.03 12.3,-2.79 2.29,-3.66 5.83,-8.32 9.07,-12.46 1.41,-2.75 1.28,-5.4 2.36,-7.66 4,-1.94 4.82,8.41 5.37,11.23 -0.25,6.4 -1.29,13.05 -5.78,18.16 -4.49,4.07 -9.47,6.69 -13.47,8.69 -1.99,0.45 -3.91,1.03 -5.82,1.65 -2.07,0.3 -4,0.58 -5.86,1 -3.74,-0.05 -8.27,-0.88 -9.97,-0.59 -3.57,3.5 -3.62,7.29 -5.44,11.89 -2.5,4.99 -4.9,10.14 -7.36,15.26 -0.37,2.04 -0.37,2.75 -0.09,4.98 1.96,2.96 4.32,6.4 8.78,9.85 4.07,2.12 8.22,4.32 12.39,6.53 3.91,1.33 7.94,2.58 13.76,1.62 1.99,-0.84 3.98,-1.62 6.06,-2.28 1.91,-0.3 6.15,1.03 10.4,0.66 3.41,-1.45 6.72,-3.29 10.26,-6.19 8.02,-10.48 15.3,-23.07 21.53,-35.04 7.83,-18.17 14.8,-37.29 16.84,-57.08 1,-0.17 2.09,-0.32 4.46,0.71 4.36,3.32 6.18,7.73 9.3,14.05 3.11,4.28 5.66,2.49 11.73,-0.5 1.37,-0.99 2.75,-1.99 4.19,-2.9 4.95,-4.45 9.93,-12.06 15.18,-17.39 1.94,-1.61 3.87,-3.24 5.94,-4.93 2.37,-3.53 4.78,-6.95 7.19,-10.36 4.62,-4.82 8.98,-9.19 13.47,-14.96 0.79,-3.28 1.17,-4.53 3.7,-7.44 7.45,-6.41 14.93,-12.64 22.57,-18.95 2.75,-1.71 5.53,-3.41 8.41,-5.15 7.31,-6.69 14.84,-13.27 22.36,-19.89 7.28,-7.68 14.38,-15.78 20.91,-24.1 7.35,-4.77 14.75,-9.61 22.23,-14.51 1.71,-2.04 3.58,-5.86 5.49,-8.32 2.67,-2.53 5.37,-5.02 8.19,-7.6 0.49,-1.46 0.95,-2.87 1.66,-4.24 -0.17,-1.79 -0.38,-3.56 -0.41,-5.44 -0.84,-1.62 -1.62,-3.29 -2.37,-4.78 -5.33,-6.65 -11.14,-16.04 -18.82,-14.99 -6.78,2.83 -11.48,6.48 -16.19,10.84 -6.89,7.48 -13.79,14.96 -20.49,22.55 -1.17,0.74 -2.37,1.5 -3.38,2.16 -2.73,0.66 -2.86,-0.3 -3.69,-0.93 -1.37,-2.73 -2.7,-5.47 -3.99,-8.1 -2.21,-8.63 -4.7,-16.8 -8.1,-24.85 -0.84,-1.66 -1.63,-3.29 -2.45,-4.95 -0.25,-0.54 -0.46,-0.95 -0.71,-1.37 -1.17,-2.5 -2.33,-4.83 -3.5,-7.15 -0.91,-1.91 -1.86,-3.87 -2.65,-5.83 -3.58,-7.97 -7.2,-15.97 -10.55,-23.85 -3.26,-6.28 -6.37,-12.6 -9.44,-18.91 -0.84,-1.63 -1.62,-3.29 -2.45,-4.99 -0.84,-1.62 -1.62,-3.29 -2.28,-4.94 -0.84,-1.34 -1.42,-2.59 -2.04,-3.83 -0.22,-0.04 -0.42,-0.12 -0.42,-0.12 -0.7,-1.55 -1.41,-2.91 -1.95,-4.33 -0.87,-1.79 -1.74,-3.57 -2.63,-5.36 -0.16,0.03 -0.28,0.12 -0.28,0.12 -0.93,-1.96 -1.83,-3.7 -2.59,-5.57 -0.32,-0.71 -0.57,-1.24 -0.84,-1.78 -0.79,-1.55 -1.5,-3.04 -2.2,-4.41 -1.83,-3.7 -3.28,-5.69 -5.48,-7.36 -6.36,-1.82 -11.18,0.18 -15.58,2.33 -2.13,0.93 -4.16,1.91 -6.12,2.86 -3.49,1.87 -6.97,3.78 -10.43,5.82 -0.71,0 -1.38,0 -2.04,-0.03 -0.21,-1.08 -0.41,-2.18 -0.41,-3.21 1.61,-7.43 1.86,-10.8 8.31,-15.04 3.21,-3.24 6.2,-7.24 8.69,-11.22 2.21,-4.49 4.53,-9.07 6.9,-13.65 2.28,-3.36 4.7,-6.77 7.15,-10.18 3.95,-6.19 7.94,-12.27 11.97,-18.33 1.17,-2.83 2.5,-5.69 3.91,-8.44 1.04,-5.78 -1.16,-11.35 -3.33,-15.75 -7.28,-9.93 -18.41,-11.43 -28.01,-11.52 -0.84,0.41 -1.5,0.76 -2.13,1.25 -2.49,4.28 1.07,9.18 2.57,15.3 0.59,9.93 -5.28,18.45 -12.71,23.48 -0.33,0 -0.54,-0.08 -0.71,0 -0.25,-0.58 -0.54,-1.12 -0.76,-1.54 -0.08,-5.07 0.59,-11.34 -0.08,-15.47 -0.53,-1.12 -1.07,-2.21 -1.61,-3.33 -3.95,-3.86 -6.94,-5.11 -10.77,-6.97 -3.16,-0.84 -6.28,-1.71 -9.31,-2.58 -7.81,-1.3 -13.25,-1.71 -19.2,1.2 -4.75,7.31 2.58,12.93 6.31,20.46 0.13,0.95 0.34,2.07 0.54,3.15 -0.03,6.86 1.03,12.98 2.33,20.74 1.54,12.89 3.78,26.44 1.96,40.16 -2.46,5.82 -4.78,11.73 -7.04,17.62 -2.48,4.28 -7.6,7.49 -11.51,9.56 -5.24,5.66 -10.35,11.26 -15.38,16.97 -1.03,0.7 -1.99,1.5 -2.83,2.23 -3.46,3.41 -8.85,8.44 -2.84,11.97 5.91,2.7 13.47,6.2 21.83,4.82 1.03,-0.66 2.09,-1.37 3.12,-2.04 2.57,-2.29 6.98,-7.23 11.81,-7.2 3.61,2.18 6.06,12.02 6.35,17.17 -0.63,6.99 -2.95,17.5 -6.15,23.54 -3.46,3.73 -6.06,2.61 -9.26,2.31 -10.77,0 -18.13,0.38 -17.17,11.35 0.95,1.92 2.74,2.04 6.65,2.71 1.5,0.95 3.08,2.08 4.63,3.2 7.51,11.14 15.12,23.44 21.93,36.66 0.95,1.91 1.92,3.87 2.87,5.74 2.16,5.44 4.32,10.89 6.65,16.38 1.55,3.16 3.12,6.35 4.74,9.6 4.87,9.22 9.74,18.46 14.6,27.68 0.95,1.91 1.95,3.95 2.99,6.04 v 0 z m 4.85,-210.65 c 0.22,-0.29 0.63,-0.49 1.05,-0.71 1.37,-0.66 2.89,-1.41 4.39,-2.16 0.14,-0.05 0.34,0 0.68,0 -2.13,0.93 -4.16,1.91 -6.12,2.86 v 0 z m 30.22,8.36 c 0.88,1.79 1.75,3.57 2.86,5.45 -0.16,0.03 -0.28,0.12 -0.28,0.12 -0.93,-1.96 -1.83,-3.7 -2.59,-5.57 v 0 z m 7.87,15.26 c -0.22,-0.04 -0.42,-0.12 -0.42,-0.12 -0.7,-1.55 -1.41,-2.91 -1.95,-4.33 0.75,1.5 1.5,2.99 2.37,4.45 z m 4.32,8.77 c -0.84,-1.62 -1.62,-3.29 -2.28,-4.94 0.79,1.61 1.61,3.24 2.4,4.89 -0.12,0.05 -0.12,0.05 -0.12,0.05 z m 2.45,4.99 c 0,0 0,0 0.12,-0.09 -0.83,-1.62 -1.61,-3.29 -2.45,-4.95 -0.12,0.05 -0.12,0.05 -0.12,0.05 0.83,1.7 1.61,3.36 2.45,4.99 z m 9.1,18.2 c -2.83,-5.74 -5.52,-11.6 -8.14,-17.34 -0.17,0.09 -0.3,0.17 -0.3,0.17 2.8,5.61 5.61,11.43 8.44,17.17 z m 0.34,0.71 c -3.26,-6.28 -6.37,-12.6 -9.44,-18.91 0,0 0,0 0.12,-0.09 0.13,0.29 0.34,0.71 0.54,1.12 2.8,5.61 5.61,11.43 8.44,17.17 0.08,0.13 0.22,0.41 0.34,0.71 z m -20.04,19.58 c -1.33,-2.63 -2.54,-5.08 -3.74,-7.57 0,0.37 0.21,0.8 0.41,1.16 1,2.09 2.08,4.28 3.33,6.41 z m -3.33,-6.41 c 1,2.09 2.08,4.28 3.33,6.41 0,0 0.05,0.12 0.13,0.29 -0.71,0.32 -3.46,-6.69 -3.46,-6.69 v 0 z m 36.57,16.51 c 0,0 0,0 0.18,-0.09 -0.96,-1.92 -1.92,-3.83 -2.83,-5.74 0.79,1.96 1.74,3.92 2.65,5.83 z m 3.5,7.15 c -1.17,-2.5 -2.33,-4.83 -3.5,-7.15 0,0 0,0 0.18,-0.09 0.99,2.4 2.16,4.74 3.33,7.24 v 0 z M 1205.8,447.03 c 0.79,1.5 1.5,3.02 2.23,4.52 0.79,3.04 1.62,6.04 2.63,9.15 -0.37,2.38 -0.59,4.71 -0.76,7.2 -1.03,3.08 -3.56,5.2 -5.82,6.24 -5.77,-0.05 -10.23,-2.13 -14.26,-3.04 -4.16,-1.86 -6.45,-3.65 -7.65,-6.15 -0.74,-1.5 -1.5,-3.03 -2.23,-4.53 -2.8,-3.95 -6.08,-4.37 -8.9,-5.33 -5.96,0.51 -7.31,2.87 -9.4,7.32 -0.41,1.91 -0.88,3.86 -1.12,5.69 -2.83,10.93 -5.65,21.87 -8.32,32.75 -0.29,1.5 -0.58,2.99 -0.87,4.49 -0.17,3.16 -0.29,6.33 -0.33,9.4 0.41,9.19 1,18.32 1.55,27.44 0.36,1.87 0.08,4.4 0.08,6.77 -1.82,9.11 -4.37,16.79 -3.53,26.15 1.17,3.7 2.41,8.4 3.21,13.47 0.91,12.35 1.61,27.35 -2.5,39.45 -2.37,5.23 -4.71,10.48 -6.94,15.67 -3.53,6.02 -9.22,18.7 -17.25,19.4 -4.74,-0.91 -6.78,-2.94 -8.98,-4.98 -4.08,-4.82 -9.61,-9.44 -12.02,-14.42 -0.12,-3.33 -0.17,-6.58 -0.09,-9.85 2.45,-13.47 3.92,-26.82 5.04,-39.82 0.74,-5.15 1.58,-10.35 2.49,-15.43 -0.08,-16.5 -0.92,-31.43 0.17,-47.18 -0.05,-7.16 0,-14.3 0.12,-21.36 1.38,-9.39 3.29,-20.08 5.33,-28.77 1.66,-4.91 3.46,-13.13 6.99,-16.05 3.52,-10.48 6.02,-23.78 6.1,-34.75 -0.38,-3.91 -0.63,-7.9 -0.88,-11.85 0.95,-7.81 4.08,-15.33 5.99,-22.89 1.42,-7.53 1.62,-15.85 2.08,-23.24 1.62,-4.7 3.17,-9.89 5.49,-14.51 2.49,-1.2 4.78,-0.41 8.44,1.16 2.87,1.66 5.82,3.46 8.77,5.29 3.74,5.99 6.73,12.72 8.77,20.41 0.54,6.57 -0.13,14.93 -1.62,21.98 -1.95,6.45 -5.99,13.52 -7.52,19.75 -0.05,1.7 -0.46,2.58 0.79,5.08 0.33,0 0.66,0 1.08,0.12 8.11,-2.91 17.5,-3.65 27.6,-1.08 6.82,3.45 11.27,8.98 16.06,16.34 v 0 z m 81.38,236.19 c 0.38,-1.04 -1.82,-4.53 -1.9,-4.7 -0.58,0.3 1.33,3.46 1.9,4.7 z m 1.66,3.28 c -0.57,0.3 1.62,4 2.28,5.37 0,0 0.14,-0.04 0.3,-0.12 -0.87,-1.79 -1.79,-3.58 -2.58,-5.25 z m 169.95,-102.59 c 0.74,1.5 1.5,2.99 2.28,4.66 1.28,4 2.58,8.98 0.83,14.13 -3.6,6.19 -8.19,11.85 -12.93,16.42 -1.83,5.32 -8.68,3.2 -11.02,2.67 -3.33,-1.62 -6.69,-3.21 -9.89,-4.91 -1.16,-0.95 -2.33,-1.91 -3.45,-2.86 -2.94,-3.16 -5.86,-6.36 -8.65,-9.61 -1.99,-1.24 -3.9,-2.33 -5.82,-3.45 -1.91,-0.41 -3.73,-0.71 -5.44,-1.08 -8.73,1.04 -17.12,1.59 -23.94,-1.04 -0.74,-0.83 -1.28,-1.58 -1.83,-2.32 1,-12.27 7.9,-19.75 17.34,-26.98 2.5,-1.54 4.95,-3.08 7.45,-4.66 6.18,-3.03 11.21,-7.73 19.82,-4.82 9.06,6.32 21.87,9.44 31.55,18 1.12,2 2.4,3.91 3.7,5.87 v 0 z m -167.37,107.83 c -0.87,-1.79 -1.79,-3.58 -2.58,-5.25 -0.54,-1.07 -1.07,-2.16 -1.66,-3.28 0.38,-1.04 -1.82,-4.53 -1.9,-4.7 -2.71,-5.49 1.99,-11.22 5.03,-15.09 2.2,-2.12 4.52,-4.28 6.97,-6.32 2.99,-1.82 6.2,-3.7 9.4,-5.47 2.84,-1.22 11.39,-3.58 14.05,-6.91 1.03,-2.36 2.12,-4.62 3.24,-6.9 4.37,-4.36 8.69,-8.68 13.14,-12.93 4.94,-7.57 10.97,-16.5 15.51,-25.03 0.3,-0.12 0.54,-0.29 0.87,-0.29 0.54,1.78 1.29,3.65 2.04,5.52 0.63,7.87 -0.32,17.39 0.17,26.02 -0.37,14.18 -0.41,29.05 -2.07,43.69 -1.09,3.07 -2.13,6.15 -3.04,9.2 -2.94,4.35 -6.62,8.35 -10.18,10.8 -12.11,5.94 -27.07,6.81 -38.71,5.03 -1.91,-0.79 -3.7,-1.62 -5.48,-2.45 -2.04,-2.09 -3.99,-4 -4.78,-5.65 v 0 z"
   id="path13" />
  <path
   class="fil0"
   d="m 377.9,1211.79 c -4.13,3.58 -8.61,4.29 -11.76,5.45 -1.09,0.08 -2.05,0.2 -2.99,0.33 -3.2,3.11 -4.7,3.95 -6.98,2.28 -2.21,-5.96 -1.79,-11.56 -0.54,-18.25 -0.13,-0.49 -0.22,-1.12 -0.3,-1.74 -6.9,-8.49 -9.56,-16.55 -13.3,-26.78 -2.21,-3.2 -4.9,-6.44 -1.83,-10.35 2.75,-1.04 7.52,-3.91 11.26,-0.62 2.32,4.12 4.66,8.85 7.87,12.71 4.14,2.96 7.22,7.2 9.6,11.69 2.82,7.2 5.61,14.38 8.48,21.45 0.17,1.29 0.32,2.53 0.5,3.82 z m 77.44,163.99 c -1.08,1.79 -3.7,4.49 -4.19,5.08 -1.46,-0.49 -2.83,-1 -4.13,-1.59 -5.69,-11.69 -10.43,-26.36 -12.17,-39.74 0.17,-8.27 0,-17.42 1.45,-26.47 1.99,-3.87 1.25,-5.33 6.82,-4.32 1.07,2.21 5.69,3.2 7.9,6.11 -1.17,5.94 -2.13,11.84 -3.12,17.71 -0.36,1.99 0.54,5.02 0.75,6.6 2.37,8.45 4.78,16.84 7.32,25.19 0.45,4.37 0.54,8.07 -0.63,11.43 z m 76.65,-77.44 c -2.33,4.54 -4.44,5.91 -7.97,6.82 -3.95,-1.38 -3.83,-1.66 -5.49,-4.32 -0.63,-2.99 -1.17,-5.91 -1.66,-8.77 -0.05,-1.59 -0.13,-3.12 -0.21,-4.62 0.87,-3.83 1.83,-7.9 1.13,-12.39 0.66,-2.36 2.2,-8.49 7.48,-7.12 1.82,1.25 3.73,2.37 5.6,3.46 0.29,1.33 0.75,2.71 1.17,4.08 -0.38,3.37 -0.3,7.43 -0.18,10.55 0.33,2.08 0.89,4.09 1.38,6.07 -0.41,2.16 -0.88,4.24 -1.25,6.23 v 0 z m 34.47,41.87 c 0.44,-1.38 0.98,-2.84 1.61,-4.29 1.29,-0.63 2.83,-0.25 20.95,3.04 3.66,0.37 7.48,0.74 11.31,1.16 1.78,0.79 3.86,1.5 5.86,2.21 2.09,0.99 3.74,2.79 5.33,4.85 0.62,2.09 0.41,3.95 0.12,5.2 -4.19,7.83 -11.38,10.19 -17.8,13.27 -9.38,3.56 -21.57,7.97 -24.68,17.03 -3.91,5.03 -7.28,7.82 -11.11,11.35 -3.94,4.82 -4.86,8.78 -5.99,13.35 -0.04,1.86 -0.04,3.65 0.04,5.52 1.21,3.11 2.87,4.04 5.2,6.49 5.99,9.35 10.48,19.58 13.3,30.25 0.63,1.25 1.38,2.58 2.13,3.92 0.42,0.57 0.84,1.03 1.33,1.53 2.53,2.25 5.11,4.33 7.9,6.53 4.54,2.63 8.86,4.58 14.8,6.67 13.81,2.66 20.12,1.82 29.49,-11.02 1.65,-3.54 3.32,-7.03 5.06,-10.69 0.75,-3.49 1.17,-6.86 1.2,-10.94 -1.16,-5.4 -2.48,-10.26 -5.06,-15.54 -2.17,-0.75 -4.32,-1.5 -6.45,-2.42 -4.86,-3.02 -7.4,-6.65 -11.6,-9.81 -4.7,-4.81 -6.36,-11.43 -8.57,-17.66 -0.54,-4.57 0.33,-6.24 5.41,-9.94 10.92,-5.32 28.38,-9.72 40.95,-13.55 5.02,-0.83 10.38,-1.59 17.03,-4.07 5.74,-3.79 14.76,-9.78 14.39,-19.18 -1.79,-4.4 -3.58,-8.93 -5.2,-13.47 -3.17,-6.56 -9.57,-14.37 -14.77,-18.62 -5.9,-3.41 -12.27,-6.56 -18.62,-9.22 -1.08,-0.32 -2.21,-0.76 -3.12,-1.08 -1.61,-0.54 -3.29,-1.12 -4.9,-1.66 -0.49,-0.21 -1.08,-0.37 -1.46,-0.54 -7.06,-1.99 -14.05,-4.12 -21.07,-6.23 -0.95,-0.17 -1.91,-0.49 -2.87,-0.84 -3.41,-1.2 -6.78,-2.37 -10.02,-3.49 -0.54,-0.22 -1.08,-0.38 -1.58,-0.71 -6.77,-2.33 -13.22,-5.2 -17.96,-9.44 -2.13,-4.36 -4.49,-8.52 -5.99,-13.3 -1.66,-2.24 -3.29,-4.61 -4.74,-6.94 -4.28,-3.33 -8.68,-5.91 -12.6,-7.86 -2.32,-2.03 -4.66,-4.04 -6.94,-6.19 -5.49,-6.49 -9.47,-14.67 -14.42,-21.41 -0.84,-0.13 -1.55,-0.21 -2.24,-0.45 -0.95,-0.33 -1.7,-0.75 -2.49,-1.17 -0.79,-0.74 -1.55,-1.61 -2.17,-2.45 -2.21,-4.52 -4.53,-9.72 -7.9,-12.59 -4.16,-1.59 -8.27,-3.28 -12.22,-5.02 -6.41,-0.84 -15.72,-1.5 -20.29,0.29 -2.62,2.75 -3.46,6.06 -4.58,9.3 -0.3,1.13 -0.49,2.25 -0.54,3.29 0.17,2.5 0.38,5.03 0.63,7.36 0.92,2.62 1.87,5.53 2.17,8.19 -1,5.1 -3.61,3.74 -6.58,2.7 -4.19,-3.58 -7.31,-10.39 -7.43,-16.05 0.83,-4.15 1.66,-8.36 2.53,-12.59 -0.66,-1.61 -1.28,-3.38 -1.87,-5.07 -0.2,-5.12 1.91,-10.72 3.66,-16.18 -3.34,-4.04 -2.71,-6.68 -1.87,-12.18 -0.54,-4.12 -1.66,-8.32 -4.19,-11.93 -1.38,-1.24 -2.72,-2.62 -3.96,-3.95 -4.32,-3.33 -9.02,-6.32 -13.34,-7.82 -12.27,-2.75 -20.63,3.46 -29.97,8.57 -0.46,0.88 -0.76,1.7 -1.05,2.49 0.38,4.7 3.83,9.06 6.15,12.94 2.8,8.09 4.16,18.99 5.62,27.1 0.79,8.6 2.13,17 3.41,24.68 1,4.46 2.67,10.19 2.45,14.34 -0.66,5.4 -3.16,9.52 -5.07,13.27 -3.61,2.53 -5.4,-0.18 -7.39,-1.5 -0.25,-0.54 -0.46,-1.22 -0.68,-1.92 0.46,-3.45 -0.16,-8.36 -1.11,-11.73 -6.07,-12.59 -12.39,-25.4 -19,-37.86 -2.33,-5.53 -4.65,-11.02 -6.85,-16.51 -2.45,-5.06 -5.37,-10.31 -8.19,-14.84 -3.78,-4.78 -7.56,-9.73 -11.26,-14.63 -8.24,-10.48 -18.29,-20.78 -29.44,-27.1 -2.21,-0.76 -4.32,-1.62 -6.45,-2.53 -1.74,-0.13 -3.53,-0.3 -5.11,-0.54 -5.73,0.45 -8.72,1.99 -12.26,3.95 -1.92,1.45 -3.61,2.99 -5.33,4.35 -5.07,7.65 -6.69,16.19 -9.44,24.03 -0.54,2.09 -1.07,4.15 -1.53,6.28 1.03,10.1 5.36,18.25 7.86,27.64 1.58,13.71 2.86,27.51 5.81,40.82 1.38,5.33 2.75,10.52 4.24,15.71 0.95,2.95 2.09,5.91 3.16,8.85 2.17,6.07 4.45,12.14 6.73,18.25 -0.3,1.29 -0.45,2.58 -0.57,3.92 0.28,6.94 3.41,4.98 9.51,3.9 5.07,-1.42 12.39,-3.29 17.75,-7.78 1.66,-3.99 3.36,-8.09 5.12,-12.18 1.15,-1.58 1.07,-3.12 4.49,-4.19 1.03,0.5 2.12,0.88 3.36,1.29 5.99,4.95 13.55,11.68 17.25,19.33 -0.12,3.33 -0.12,9.11 -2.48,10.23 -9.53,2.9 -18.83,5.74 -28.16,8.59 -8.68,1.38 -18.82,2.58 -25.39,4.95 -5.49,2.67 -9.74,6.2 -11.26,10.52 -0.58,1.74 -1.04,3.46 -1.47,5.11 0.18,4.74 -0.36,11.52 1.84,14.76 1.15,0.21 1.61,0.71 3.19,0.49 3.58,-1.99 7.12,-3.95 10.82,-5.82 2.86,-0.36 9.47,1.5 13.83,2.95 0.54,0.22 1.08,0.41 1.79,0.5 2.04,0.7 4.12,1.29 6.32,1.92 -0.04,0.12 -0.09,0.25 -0.09,0.25 0.13,0.08 0.41,0.12 0.68,0.25 1.45,0.66 2.94,1.16 4.4,1.66 2.16,0.45 4.28,0.87 6.57,1.25 2.53,0.08 5.15,0.08 7.86,0.11 4.41,-0.91 8.81,-1.82 13.34,-2.61 1.03,0.05 2.09,0.08 3.24,0.21 1.04,0.5 2.17,0.88 3.38,1.29 1.58,1.16 3.24,3.29 4.7,5.28 4.32,11.1 7.6,22.99 11.11,33.88 3.9,15.92 11.05,32.51 16.49,47.77 4,8.23 7.36,17.71 9.36,26.32 1.58,9.47 2.9,18.75 5.03,27.52 7.39,13.18 15.75,27.53 25.56,39.53 1.65,1.33 3.37,2.54 5.19,3.78 1.5,0.5 2.99,1.04 4.63,1.59 2.16,0.3 4.36,0.17 7.64,-0.21 7.16,-2.24 13.56,-5.33 18.96,-13.02 0.41,-1.66 0.95,-3.28 1.54,-4.9 0.21,-4.95 0.54,-9.81 0.87,-14.72 -1.45,-6.27 -4.19,-12.85 -6.85,-19.21 -3.24,-16 -7.69,-31.96 -10.97,-47.81 -3.58,-12.93 -7.08,-25.97 -10.61,-39.03 -2.21,-13.22 -3.7,-27.4 -3.73,-41.65 0.2,-7.51 0.37,-15.04 0.71,-22.48 0.74,-3.13 0.08,-5 4.94,-5.58 3.61,2.29 4.82,9.73 6.15,13.34 1.54,3.46 3.08,6.86 4.61,10.28 0.37,2.4 0.54,5.02 0.33,7.4 -2.29,6.14 -4.61,12.34 -6.78,18.57 -0.28,2.63 -0.57,5.25 -0.74,7.91 0.95,7.31 5.66,14.26 8.68,20.78 2.62,3.91 3.78,4.77 9.4,2.66 11.35,-5.15 24.31,-10.56 35.22,-19.33 8.18,-7.35 18.08,-14.05 23.19,-25.31 0.49,-1.33 1,-2.83 1.55,-4.32 v 0 z m 95.4,-123.59 c 1.69,0.74 3.46,1.36 5.32,2.02 0,0 0.08,-0.11 0.13,-0.28 -0.66,-0.22 -1.33,-0.46 -1.87,-0.79 -1.25,-0.3 -2.49,-0.59 -3.57,-0.95 v 0 z m -61.69,28.22 c 0.53,-1.55 1.03,-2.99 1.7,-4.45 1.82,-5.28 6.11,-10.59 10.39,-16.42 8.73,-4.98 21,-7.73 32.68,-10.63 1.33,0.03 2.86,0.08 4.32,0.16 4.16,1.12 8.36,2.13 12.6,3.13 1.69,0.74 3.46,1.36 5.32,2.02 0,0 0.08,-0.11 0.13,-0.28 1.87,0.66 3.78,1.33 5.74,1.87 2.45,0.83 4.86,1.66 7.43,2.53 0.84,2 1.66,3.95 2.66,5.95 3.57,6.28 3.38,11.17 2.33,17.66 -1.08,3.25 -2.62,5.45 -3.78,7.03 -0.99,0.71 -2,1.42 -2.87,2.21 -3.95,1.66 -7.73,3.36 -11.51,5.07 -2.7,0 -5.44,-0.04 -8.02,-0.04 -7.78,-1.16 -15.55,-2.38 -23.16,-3.61 -9.2,0.71 -19,5.36 -25.9,7.81 -6.94,-1.5 -13.83,-2.99 -20.58,-4.57 -0.54,-1.55 -0.37,-2.37 0.76,-4.74 3.03,-2.75 7.27,-5.66 9.77,-10.69 v 0 z"
   id="path14" />
  <path
   class="fil0"
   d="m 2854.78,1017.91 c -0.79,-1.78 -1.62,-3.53 -2.33,-5.11 -0.41,-1.38 -0.87,-2.7 -1.33,-3.83 -1.5,-8.22 -4.36,-19.62 0.33,-24.48 2.24,-3.52 0.96,-8.52 0.67,-10.35 -1.66,-8.27 -2.5,-11.76 2.9,-16.38 10.81,-6.85 22.07,-7.97 32.34,-12.05 11.56,-7.65 17.17,-19.08 20.83,-30.02 0.49,0.71 0.87,1.55 1.25,2.33 0.71,8.72 -0.17,18.95 -0.79,29.89 0.95,4.57 1.65,10.39 1.99,16.63 -0.58,3.37 -1.33,6.77 -2.08,10.22 -0.05,3.29 -0.21,6.69 -0.42,10.02 0.59,8.44 1.13,17.62 2.5,28.24 2.04,4.44 1.5,12.22 -0.79,18.48 -1.29,1.55 -2.67,3.13 -3.95,4.87 -2.75,1.66 -5.49,5.82 -9.66,8.49 -7.27,1.78 -20.86,-6.45 -27.05,-9.82 -4.37,-3.57 -6.77,-6.36 -10.09,-9.85 -1.34,-2.49 -2.84,-4.9 -4.33,-7.28 z M 2729.4,788.49 c -0.08,-0.58 -0.04,-0.95 -0.04,-1.33 2.9,-7.94 5.87,-15.84 8.81,-23.74 0.21,-5.9 2.45,-7.69 6.04,-7.02 4.19,2.74 9.25,7.93 13.75,11.09 5.11,1.87 10.1,3.88 15.09,5.87 5.52,2.45 10.93,4.98 16.42,7.7 3.33,0.98 6.69,1.99 10.1,3.11 10.94,1.95 21.86,3.91 32.84,5.99 20.9,2.61 41.77,5.24 62.56,8.07 1.5,-0.51 2.99,-1 4.36,-1.42 8.77,-7.48 5.99,-13.93 6.69,-22.96 0.04,-5.03 0.04,-10.01 -0.04,-14.83 -0.54,-2.87 -1.2,-5.61 -1.82,-8.24 -1.75,-4.19 -5.17,-11.35 -4.58,-14.67 5.4,-2.5 16.83,0.95 22.02,2.66 3.34,1.37 6.66,2.75 9.9,4.33 9.19,5.64 18.33,11.29 27.43,16.95 4,3.24 7.98,6.4 11.85,9.85 9.44,6.68 20.33,12.3 30.83,17.16 4.16,-0.54 8.19,-1.08 12.22,-1.53 12.65,-4.46 25.36,-8.73 37.92,-12.9 7.27,-2.2 14.42,-4.32 21.61,-6.28 6.5,-1.41 14.8,-2.28 20.49,-3.73 3.88,-0.84 7.78,-1.62 11.48,-2.37 8.57,-2.36 16.96,-4.7 25.44,-6.82 1,-1.2 1.96,-2.45 3.04,-3.53 1.66,-1.33 3.45,-2.48 5.24,-3.69 1.62,-0.58 3.15,-1.07 4.7,-1.59 14.46,0.51 15.62,17.76 19.16,29.65 0.76,4.69 0.63,7.81 -1.61,13.83 -1.87,2.63 -3.91,5.28 -5.9,8.15 -2.21,1.96 -4.58,3.98 -6.91,6.03 -2.24,0.99 -4.57,2.28 -6.85,3.53 -4.9,0.67 -9.82,1.41 -14.81,2.28 -2.9,0.79 -5.85,1.55 -8.89,2.53 -8.32,2.09 -18.29,2.99 -27.77,4.62 -7.48,2.67 -13.92,3.29 -11.35,14.05 1.25,2.75 2.21,5.2 5.57,7.53 3.41,-1.38 6.69,-2.67 10.02,-3.83 7.2,14.85 14.38,29.73 21.49,44.81 0.3,1.58 0.7,3.29 1.11,5.07 0.09,4.77 -2.86,18.09 -11.26,20.41 -4.07,-0.87 -8.35,-2.95 -11.46,-5.57 -15.8,-7.07 -31.4,-14.21 -44.11,-25.19 -1.55,-2.4 -2.67,-3.24 -3.79,-4.44 -7.07,-4.13 -14.09,-8.02 -21.28,-11.88 -3.53,-2.25 -6.99,-4.33 -10.45,-6.42 -11.34,-3.68 -23.56,-3.86 -34.91,-6.65 -5.91,-0.74 -12.19,-1.74 -18.83,-1.58 -3.96,-0.13 -7.78,-0.13 -11.76,0 -1.66,-0.62 -8.11,0.05 -10.73,0.62 -14.26,5.58 -30.92,8.36 -47.64,12.77 -4.69,1.95 -12.3,1.74 -18.2,4.44 -4.32,-0.12 -8.81,-0.2 -13.17,-0.12 -3.37,-0.63 -6.85,-1.12 -10.4,-1.66 -13.13,-2.5 -27.61,-7.98 -40.07,-13.3 -6.86,-3.62 -13.88,-7.16 -20.82,-10.52 -19.01,-11.18 -39.7,-23.89 -54.66,-39.27 -1.34,-2.09 -2.67,-4.2 -4.09,-6.04 v 0 z"
   id="path15" />
  <path
   class="fil0"
   d="m 777.75,768.2 c -2.23,2.83 -4.49,5.62 -6.69,8.54 -1.53,3.07 -3.07,6.14 -4.4,9.25 -2.32,9.49 -0.83,19.42 -0.25,29.27 -0.3,5.91 -0.46,11.93 -0.58,17.92 1.12,4.4 1.5,6.14 6.89,8.15 1.05,0.17 4.54,1.33 5.57,-2.09 -0.3,-6.77 -0.54,-13.59 -0.62,-20.41 -0.46,-1.61 -0.79,-3.11 -1.17,-4.66 -1.36,-2.9 -2.56,-5.2 -3.32,-7.94 -0.46,-6.19 -1.69,-10.73 0.95,-16.72 1.58,-2.23 3.16,-4.52 4.83,-6.94 1.41,-1.45 2.86,-2.78 4.44,-4.27 0.54,-0.34 1.2,-0.63 1.91,-0.95 5.65,-1.58 14.42,2.99 19.96,-2.87 0,-0.58 0,-1.2 0.09,-1.69 -2.54,-6.96 -7.53,-11.73 -9.03,-18.1 -0.99,-2.9 -1.88,-5.74 -2.67,-8.68 -1.82,-2.87 -5.64,-6.11 -7.9,-6.06 -0.37,0.41 -0.7,0.71 -0.95,1.03 -2.99,7.52 -3.69,10.76 0.41,17.66 0.05,1.25 -2.4,4.24 -2.7,4.58 -1.5,1.54 -2.95,3.12 -4.45,4.7 -0.12,0.09 -0.21,0.17 -0.33,0.29 z m 161.16,149.86 c 3.46,-4.66 7.07,-9.1 9.9,-14.55 3.07,-7.03 5.57,-16.55 11.64,-22.9 2.7,-5.16 5.4,-10.31 8.23,-15.56 1.12,-4.11 2.32,-8.1 3.53,-12.09 1.29,-2.58 2.61,-5.24 4.08,-7.82 0.25,-5.69 1.79,-9.39 4.62,-14.89 0.12,-2.03 0.36,-3.99 0.61,-5.91 -0.2,-1.4 -0.44,-2.86 -0.71,-4.22 -1.82,-4.78 -5.99,-7.91 -9.69,-9.66 -1.32,-0.03 -2.65,-0.12 -3.86,-0.28 -10.13,1.86 -20.53,3.86 -27.22,9.22 -1.16,1.25 -2.37,2.53 -3.5,3.65 -9.1,8.76 -19.54,13.52 -29.59,18.04 -13.3,4.24 -27.4,6.28 -38.71,9.85 -2.36,1.3 -3.19,2.12 -3.98,2.95 -2.75,6.9 -7.45,10.98 -9.74,16.5 -0.62,6.53 -1.11,12.47 -1.03,19.04 1.16,4.86 2.12,7.57 5.99,12.06 3.03,1.65 5.91,2.58 11.13,2.45 7.56,-0.38 15.97,-0.55 23.78,-5.58 3.62,-5.69 6.69,-12.09 8.65,-19.33 0.3,-8.05 0.57,-12.54 4.7,-19.58 -0.08,-2.21 2.99,-5.23 5.07,-7.43 1.5,-0.76 3.24,-1.5 4.95,-2.28 4.44,-0.09 8.93,-0.22 13.5,-0.22 2.25,0.54 3.92,1.34 4,4.95 -0.32,3.87 -0.62,7.78 -0.92,11.65 -1.61,3.81 -3.28,6.56 -5.37,9.77 -2.4,4.65 -4.81,9.27 -7.06,13.92 -2.58,6.49 -4.82,13.26 -7.94,18.42 -4.12,3.45 -8.16,6.89 -12.06,10.35 -2,1.29 -4,2.58 -5.79,3.83 -3.4,1.29 -6.85,2.62 -10.18,3.82 -9.3,1.25 -19.7,0.71 -26.89,-2.37 -9.27,-4.86 -14.34,-12.02 -19.67,-20 -0.62,-1.82 -1.28,-3.65 -1.82,-5.57 -1,-7.06 -1.79,-14.18 -2.58,-21.29 0.3,-3.07 0.95,-4.61 2.75,-7.48 0.12,-1.61 0.49,-3.24 0.87,-4.9 -0.84,-9.14 -0.84,-7.89 6.94,-14.01 1.12,-1.36 2.21,-2.7 3.38,-3.95 2.04,-4.45 4.15,-8.94 6.36,-13.38 0.36,-1.42 0.74,-2.86 1.24,-4.19 0.13,-2.25 -0.33,-8.82 -1.78,-10.23 -5.16,-10.86 -9.57,-23.37 -17,-31.4 -2.75,-4.19 -2.62,-7.06 -3.46,-11.8 -1.37,-1.91 -2.75,-3.78 -4.03,-5.77 -2.87,-5.32 -1.3,-8.03 -1.17,-13.8 -5.4,-13.52 -12.71,-24.82 -19.62,-36.33 -1.65,-1.96 -3.12,-3.17 -4.08,-3.62 -8.27,-2.17 -15.7,-3.28 -22.45,-2.9 -5.86,1.41 -8.85,3.9 -12.01,7.24 -1.08,1.15 -2.17,2.28 -3.15,3.32 -0.79,0.83 -1.47,1.59 -2.04,2.4 -1.42,1.88 -2.67,3.83 -3.83,5.66 -1.83,4.66 -2.21,9.44 -3.65,13.01 -0.93,1.22 -1.79,2.33 -2.45,3.46 -1.92,4.9 -2.18,10.23 -3.04,15.34 -1.45,4 -2.86,7.98 -4.19,12.11 -0.95,5.81 -1.92,11.63 -2.87,17.45 -0.88,6.53 -1.7,13.27 -2.99,19 -0.41,3.37 -0.75,6.61 -1.07,9.85 -1.13,2.71 -2.17,5.49 -3.12,8.15 0.16,7.32 -5.49,13.06 -9.64,17.63 -1.38,1.45 -2.67,2.83 -3.97,4.14 -2.45,2.21 -5.99,4.46 -8.05,5.62 -1.29,1.37 -2.58,2.7 -3.78,4.14 -2.71,6.2 -5.29,12.27 -2.37,18.39 0.84,0.98 1.08,1.77 3.95,2.12 1.91,-0.37 4.27,-2.45 7.94,-1.92 1.87,1.55 3.95,3.17 6.02,4.71 4.37,2.95 8.82,5.77 13.35,8.72 2,1.88 3.95,3.74 6.07,5.74 1.91,2.99 3.82,5.99 5.9,8.98 3.57,4.58 8.6,9.93 13.51,14.63 4.75,3.33 11.26,6.53 14.6,13.02 2.45,14.3 4.41,29.55 7.82,43.73 0.87,2.62 1.78,5.44 1.82,8.49 -2.45,3.41 -8.57,5.72 -10.72,6.31 -1.2,-0.21 -2.21,-0.37 -3.24,-0.54 -4.16,-2.95 -6.41,-6.45 -8.49,-9.27 -1.08,-2.57 -2.28,-5.94 -3.95,-7.51 -6.94,-4.41 -16.59,-4.04 -21.36,-8.58 -0.59,-1.54 -1,-2.94 -1.46,-4.35 -0.63,-8.95 -0.46,-18.3 -3.11,-26.74 -3.62,-6.03 -9.61,-10.15 -14.52,-14.59 -0.2,0 -0.29,-0.08 -0.41,-0.21 -1.33,-1.29 -2.62,-2.45 -3.82,-3.62 -0.13,-0.17 -0.26,-0.25 -0.13,-0.32 -1.99,-2.08 -4,-4.36 -5.82,-4.75 -3.78,0.22 -7.31,0.41 -10.89,0.58 -7.44,-1.69 -8.15,-5.37 -8.02,-11.76 -1.33,-8.03 -3.24,-16.21 -7.07,-22.41 -1.87,-4.54 -3.49,-9.06 -5.15,-13.6 -2.58,-10.18 -6.91,-20.24 -11.94,-28.97 -1.11,-1.5 -2.21,-2.91 -3.15,-4.36 -1.12,-0.92 -2.21,-1.87 -3.2,-2.91 -2.21,-2.08 -4.4,-4.15 -6.58,-6.23 -4.08,-3.25 -8.02,-6.41 -11.97,-9.52 -12.14,-6.41 -5.99,7.77 -4.78,13.83 0.93,8.19 1.79,16.43 2.84,24.53 1.24,27.73 1.33,58.53 -0.29,86.34 0.2,9.3 -0.34,15.55 4.27,24.07 1,3.11 1.71,6.77 2,10.59 2.04,4.32 7.82,8.07 12.39,10.77 2.78,1.29 5.72,2.53 8.71,3.74 5.46,1.41 17.44,5.24 24.12,0.92 0.71,-0.71 1.5,-1.54 2.29,-2.37 1.99,-5.06 4.69,-14.96 0.79,-20.07 1.37,-1.66 2.78,-3.29 4.23,-5.07 1.83,-0.05 4.49,3.24 6.78,5.44 4.74,7.28 5.23,17.83 6.57,26.86 1.28,6.56 2.41,13.34 6.53,19.65 3.41,3.26 10.97,4.29 17.42,5.45 5.28,0.04 10.55,0.12 15.97,0.09 1.32,0.25 2.73,0.66 4.27,0.91 5.32,1.87 12.1,4.37 17.63,8.78 1.65,2.2 3.56,4.39 5.43,6.56 6.24,5.95 9.31,10.23 20.03,8.57 6.5,-2.2 13.56,-3.42 19.42,-9.56 4.74,-9.19 2.2,-24.49 -1.71,-33.5 -2.08,-2.21 -4.19,-4.37 -6.15,-6.45 -6.56,-10.43 -9.11,-21.32 -12.84,-32.63 -2.75,-11.31 -4.33,-22.16 -4.66,-33.71 0.29,-9.07 0.74,-18.12 1.25,-27.19 -0.26,-1.62 -0.42,-3.37 -0.54,-5.08 -2.04,-4.11 -2.99,-6.23 -3.7,-9.88 0.37,-4.94 1.28,-7.86 4.86,-12.64 1.86,-1.96 3.87,-3.82 5.95,-5.82 0.87,-1.33 1.16,-5.61 1.24,-7.16 -1.87,-4.9 -0.92,-12.17 -2.49,-17.83 -4.53,-5.48 -6.69,-5.94 -5.74,-12.76 2.09,-2.58 4.32,-6.19 8.69,-2.08 2.45,3.95 3.16,6.98 8.68,9.65 4.36,4.15 6.99,14.38 5.12,20.32 -1.66,2.37 -3.25,4.66 -4.78,6.94 -1.88,3.42 -3.41,6.28 -4.74,9.98 -1.91,8.9 -3.79,18.37 -3.57,26.94 1.37,5.86 4.66,7.61 9.56,12.46 0.66,1.17 1.16,5.87 1.2,7.29 -0.04,10.48 -0.09,20.95 -0.12,31.43 0.66,9.15 -0.22,19.4 3.9,28.27 8.32,7.9 19.17,13.02 30.93,5.4 1.33,-1.59 2.66,-3.25 4.03,-4.9 0.76,-2.67 1.62,-5.41 2.53,-8.11 0.22,-4.36 -0.32,-6.48 -2.94,-9.55 -0.62,-3.97 -1.25,-7.92 -1.74,-11.77 -2.12,-7.16 -6.66,-14.46 4.9,-14.76 8.35,0.8 16.71,1.61 25.27,2.41 9.9,-0.17 20.54,0.45 29.89,-7.48 0.21,0.17 0.54,0.26 0.87,0.37 1.71,-0.37 3.5,-0.58 5.33,-0.88 3.62,-2.07 7.9,-5.36 12.19,-9.22 1.58,-1.7 3.15,-3.32 4.93,-5.03 v 0 z M 658.65,824.53 c 2.18,2.08 4.37,4.15 6.58,6.23 -1.67,-1.54 -3.37,-3.15 -4.83,-4.74 -0.7,-0.5 -1.23,-0.96 -1.74,-1.5 v 0 z M 767.98,723.6 c 1,-1.04 2.01,-2.08 2.95,-3.11 -0.42,-0.38 -2.58,2.32 -3.15,2.94 0,0 0.08,0.08 0.2,0.17 z m 2.95,-3.11 v 0 c -1.08,1.15 -2.17,2.28 -3.15,3.32 z M 668.42,833.68 c -2.71,-2.63 -5.4,-5.16 -8.03,-7.65 1.47,1.59 3.16,3.2 4.83,4.74 0.99,1.04 2.08,2 3.2,2.91 z M 652.36,688.6 c -1.45,-1.42 -2.89,-2.8 -4.27,-4.08 -2.91,-2.79 -3.82,-3.65 -1.5,-7.19 1.58,-1.88 3.16,-3.75 4.86,-5.53 1.42,-3.99 1.91,-7.24 7.73,-6.68 1.79,0.66 3.7,1.32 5.66,1.99 5.28,0.46 10.67,0.83 16.17,1.28 2.17,-0.74 4.37,-1.41 6.69,-2.21 2.95,0.26 5.91,0.51 9.06,0.71 3.38,1.25 8.16,3.53 11.85,6.28 2.03,3.92 2.37,8.82 3.5,13.42 0.66,1.25 1.28,2.42 1.91,3.67 1.78,1.65 3.15,2.94 6.23,4.9 0.62,0 1.33,-0.17 2.04,-0.26 1.58,-2.28 2.33,-5.15 3.66,-8.43 -0.08,-2.84 -4.62,-8.53 -5.79,-10.23 -2.45,-4.54 -1.77,-5.86 -0.36,-10.48 0.71,-0.71 1.5,-1.37 2.28,-1.96 2.24,0.32 4.53,0.67 6.86,0.92 5.03,1.61 8.39,3.46 12.34,8.73 0.84,1.59 1.71,3.2 2.67,4.9 0.25,2.67 0.62,5.37 1.08,8.02 -0.63,3.37 -1.04,6.73 -1.47,10.1 -0.08,4.86 -0.16,9.74 -0.12,14.55 -0.54,3.03 -0.95,6.03 -1.41,8.98 -1.17,6.23 -2.28,12.46 -3.38,18.78 -0.91,3.46 -1.61,6.94 -2.36,10.44 -0.13,3.24 -0.04,6.49 0.05,9.73 -1,4.24 -2.01,8.4 -2.91,12.51 -0.95,6.82 -1.38,14.77 -1.71,21.79 -1.41,3.41 -2.28,6.4 -2.58,9.22 -0.25,2.37 -0.41,4.78 -0.45,7.16 -1.61,3.98 -3.65,6.97 -6.49,8.27 -3.45,0.71 -7.81,0.91 -9.6,2.21 -3.46,3.65 -6.77,5.86 -10.15,7.97 -3.41,1.91 -9.01,1.74 -10.48,0.95 -2.82,-3.07 -1.45,-5.37 -0.82,-9.1 4.15,-12.73 7.48,-24.41 8.05,-38.34 -0.36,-2.74 -0.66,-5.6 -0.83,-8.32 -0.79,-2.16 -1.33,-4.22 -1.92,-6.4 -4.49,-8.81 -7.02,-17.16 -10.09,-26.01 -0.8,-2.75 -1.59,-5.49 -2.37,-8.19 -4,-9.98 -10.23,-19.45 -15.04,-28.4 -3.95,-3.36 -7.82,-6.61 -11.57,-9.96 -1.74,-1.87 -3.44,-3.87 -5.03,-5.74 v 0 z m 125.38,79.6 c 0.13,-0.12 0.22,-0.2 0.33,-0.29 1.08,-1.38 2.24,-2.61 3.46,-3.86 -1.42,1.25 -2.71,2.57 -3.95,3.95 0,0 0.08,0.12 0.16,0.2 z m 0.33,-0.29 c 1.08,-1.38 2.24,-2.61 3.46,-3.86 0.29,-0.34 0.58,-0.63 0.99,-0.84 -1.5,1.54 -2.95,3.12 -4.45,4.7 z m 98.35,-5.11 c 1.42,-1.47 2.87,-2.99 4.37,-4.58 -0.3,0.29 -0.59,0.63 -0.87,0.92 -1.22,1.29 -2.28,2.41 -3.38,3.57 -0.13,0.09 -0.13,0.09 -0.13,0.09 v 0 z m -151.6,160.29 c -0.2,0 -0.29,-0.08 -0.41,-0.21 -1.33,-1.29 -2.62,-2.45 -3.82,-3.62 -0.13,-0.17 -0.26,-0.25 -0.13,-0.32 1.45,1.38 2.91,2.79 4.36,4.15 z M 876.42,762.8 c 1.42,-1.47 2.87,-2.99 4.37,-4.58 2.49,-2.61 5.07,-5.11 7.73,-7.69 2.54,-1.42 4.45,-2.4 9.02,-0.79 2.09,1.16 4.16,2.33 6.2,3.49 5.77,2.33 12.63,4.49 20.19,6.69 2.91,1.58 7.45,4.91 10.99,7.66 1.16,1.11 2.4,2.32 3.65,3.49 1.25,1.79 2.75,3.57 4.2,5.37 0.25,4.57 0.44,9.14 0.66,13.71 0.92,3.83 0.08,6.82 -1.99,9.43 -2.5,1.79 -5.03,1.71 -6.67,2 -15.66,-0.21 -31.21,-0.54 -46.8,-0.88 -1.5,0.37 -2.9,0.59 -4.32,0.84 -4.74,2.28 -9.06,4.12 -12.63,3.28 -2.33,0.37 -3.12,0.42 -3.96,-0.36 0.59,-3.62 1.42,-7.16 2.25,-10.72 0.57,-7.78 1.24,-15.51 1.82,-23.28 0.59,-1.21 1.17,-2.45 1.83,-3.57 1.08,-1.38 2.17,-2.75 3.45,-4.08 v 0 z"
   id="path16" />
  <path
   class="fil0"
   d="m 2367.17,584.18 c -1.66,-1.12 -3.37,-2.24 -4.95,-3.32 9.69,-7.87 23.11,-4.21 34.47,-7.92 12.26,0.68 23.06,12.19 37.07,10.77 0.63,-0.54 1.39,-0.82 2.05,-1.16 1.87,-3.28 6.68,-3.78 9.73,-4.94 0.29,-0.58 0.49,-0.96 0.75,-1.38 -1.42,-5.15 0.5,-7.86 1.62,-11.72 -0.13,-1.7 -0.22,-3.16 -0.3,-4.7 1.55,-2.9 2.04,-3.16 4.32,-4.03 4,-0.63 7.94,-1.25 12.05,-1.84 2.79,0.51 5.41,0.76 7.35,4.91 -0.08,1.7 -0.25,3.28 -1.86,6.15 -2.17,1.5 -4.28,2.99 -6.44,4.66 -1.71,3.32 -2.96,6.44 -5.7,10.64 -3.33,3.32 -6.61,6.9 -9.89,10.48 -1.66,0.66 -3.32,1.36 -5.07,1.24 -6.95,-1.74 -13.65,-3.03 -19.91,-3.69 -3.33,0.45 -6.74,1.03 -10.02,1.69 -9.31,-1.12 -18.67,-1.78 -26.99,-3.41 -1.65,-0.21 -3.4,-0.3 -5.19,-0.37 -2.42,0.21 -4.9,0.42 -7.32,0.87 -1.91,-1.07 -3.9,-2.07 -5.77,-2.94 z m 36.7,63.26 c -2.21,3.83 -5.24,8.24 -6.58,13.47 0,1.62 -0.03,3.21 0.1,4.91 2.16,10.48 5.28,19.62 12.58,29.93 2.58,2.54 5.08,5.02 7.66,7.57 0.33,0.71 0.58,1.78 0.45,3.32 2.74,10.07 27.09,14.84 37,15.26 1.2,0.5 2.28,1.07 3.49,1.78 13.3,3.04 28.02,3.83 41.95,7.24 2.04,0.62 4.12,1.42 6.15,2.21 9.82,1.2 19.45,2.58 29.3,4.03 3.92,-0.83 7.87,-1.69 11.81,-2.32 1.2,-0.21 2.45,-0.21 3.74,-0.21 5.24,-0.66 10.51,-1.08 15.84,-1.5 6.94,-1.45 14.5,-3.33 18.86,-9.15 0.88,-1.46 1.71,-2.99 2.75,-4.41 7.48,-16.33 14.14,-33.13 18.75,-48.92 0.25,-4.91 0.22,-8.95 -0.79,-12.56 -2.58,-5.07 -4.98,-10.01 -7.43,-14.89 -0.26,-3.73 -0.34,-7.43 -0.51,-10.92 -2.16,-8.98 -4.61,-12.56 -9.01,-18.5 -1.87,-1.74 -3.7,-3.33 -5.52,-4.91 -1.84,7.78 0.25,18.71 -2.59,28.47 -1.5,3.83 -2.95,7.74 -4.4,11.57 -1,5.23 -2,12.42 -4.54,18.41 -0.83,1.5 -1.69,3.03 -2.62,4.66 -1.95,2.49 -4,5.12 -5.9,7.82 -2.7,2.23 -5.53,4.65 -8.31,7.02 -3.04,3.16 -6.69,7.02 -11.23,9.89 -4.57,1.37 -9.06,2.95 -13.59,4.58 -4.08,0.17 -8.23,0.49 -12.43,0.87 -4.74,-0.54 -9.48,-1.08 -14.3,-1.46 -13.5,0.46 -29.22,-3.95 -40.4,-9.02 -5.06,-2.53 -9.98,-4.99 -14.92,-7.39 -3.07,-1.96 -6.06,-3.67 -9.06,-5.37 -3.13,-2.12 -6.28,-4.24 -9.41,-6.4 -2.23,-2 -2.9,-3.45 -3.61,-4.4 -0.32,-5.79 3.78,-9.24 5.74,-12.32 2.75,-3.28 5.44,-6.44 8.27,-9.52 4.37,-4.77 8.81,-9.48 13.22,-14 5.03,-5.08 10.23,-10.06 15.43,-15.05 4.66,-4.78 9.47,-9.43 14.21,-13.97 7.75,-7.52 15.51,-14.84 23.23,-22.15 0.97,-1.29 1.76,-2.5 2.72,-3.53 3.49,-6.37 11.02,-20.33 9.26,-26.73 -2.08,-1.16 -4.12,-2.33 -6.24,-3.37 -1.91,-1.08 -3.81,-2.16 -5.74,-3.24 -1.5,-1.22 -2.82,-2.33 -4.22,-3.33 -3.46,-5.03 0.32,-6.99 3.61,-9.32 5.73,-0.49 10.84,-1.23 15.96,-3.56 3.53,-1.79 6.11,-3.75 7.78,-6.62 -0.54,-3.91 -0.93,-7.73 -1.33,-11.39 -3.04,-10.93 -5.66,-9.73 -15.81,-9.73 -4.98,0.5 -9.88,0.93 -14.7,1.42 -5.33,-0.49 -9.44,-1.79 -13.68,-3.24 -1.41,-1 -2.83,-1.96 -4.24,-2.75 -3.24,-4.74 -7.43,-4.62 -5.23,-8.57 -3.66,-3.41 -6.99,-2.91 -11.23,-2.08 -9.72,2.75 -21.69,4.12 -27.51,14.34 0.57,5.4 -0.09,9.72 5.19,15.04 1.61,0.95 3.41,1.96 5.2,2.95 0.12,1.7 -0.3,1.46 -1.55,3.61 -4.27,2.5 -11.17,4.13 -16.29,6.11 -7.02,1.29 -13.55,0.09 -20.24,-0.84 -4.36,-0.32 -8.68,-0.62 -13.14,-0.79 -3.24,-0.04 -6.48,-0.04 -9.77,0.05 -2.89,0.32 -10.48,0 -12.34,3.32 -0.76,3.5 2.45,9.64 6.1,13.71 0.59,2.18 -3.82,4.54 -5.94,5.66 -4.54,1.42 -9.22,2.91 -13.88,4.41 -6.95,2.36 -13.85,4.98 -20.7,7.56 -2.67,1.2 -5.2,2.45 -7.7,3.73 -3.86,1.05 -7.73,2.13 -11.56,3.43 -14.8,2.2 -31,-2.29 -43.27,7.51 -2.78,6.53 -4.12,14.3 0,22.57 2.75,2.84 5.61,5.7 8.4,8.73 2.17,1.61 6.52,2.24 9.93,2.91 3.37,1.03 6.69,2.21 10.14,3.44 6.61,1.42 16.67,-0.44 24.86,-0.28 9.74,1.33 18.37,2.66 29.06,3.27 8.4,-1.15 16.87,-1.4 25.65,0.3 4.45,-0.54 8.85,-0.91 13.34,-1.25 4,0.68 7.7,1.13 12.02,0.14 3.07,-1.66 5.28,-4.58 8.14,-0.41 0.13,4.22 -0.54,8.35 -3.37,13.3 -3.7,6.52 -7.4,13.04 -11.06,19.82 v 0 z m 136.39,-185.77 c -2.09,-3.7 3.52,-11.34 4.7,-13.38 4.57,-3.92 5.33,-3.67 11.17,-4.13 3.13,-1.32 6.12,-2.49 9.15,-3.7 4.12,-2.49 9.74,-4.4 13.71,-6.65 3.08,-1.29 6.16,-2.62 9.27,-3.92 4.41,-1.11 6.94,-1.11 12.31,-1.69 3.2,-0.87 6.41,-1.74 9.69,-2.66 2.17,-0.33 10.52,-2.67 13.3,-1.79 2.83,-0.58 6.4,-2.13 8.4,-4.07 4.49,-2.5 8.48,-3.5 13.75,-4.46 4.46,-0.21 9.4,-0.66 13.65,-1.45 5.52,0.41 11.26,-1.04 16.09,3.49 1.5,3.03 0.17,10.23 -3.53,13.56 -8.68,5.36 -18.88,10.55 -27.94,14.84 -9.56,3.78 -20.99,8.32 -30.59,10.93 -1.25,0 -2.41,0.09 -3.53,0.17 -2.33,-1.33 -3.53,-1.45 -4.98,-1.37 -4.13,-2.33 -3.62,-9.82 -3.83,-11.39 -0.75,-0.58 -1.42,-0.99 -2.13,-1.37 -2.16,0.95 -4.36,1.99 -6.65,3.11 -4.66,0.59 -9.31,0.8 -14.01,1.75 -2.04,1.37 -4.08,2.74 -6.04,4.33 -8.68,4.49 -21.24,8.71 -30.96,10.26 -0.38,-0.25 -0.66,-0.41 -0.99,-0.41 v 0 z m -115.44,-32.73 c -4.19,-2.74 -8.35,-5.94 -11.02,-8.22 -3.91,-7.11 -7.02,-13.76 -10.72,-19.62 -5.37,-6.49 -11.65,-7.74 -18.2,-8.89 -9.4,0.28 -9.44,4.19 -12.81,13.3 -0.33,3.07 -0.41,5.2 0.49,9.64 4.16,12.3 7.91,27.1 11.77,40.65 1.79,4.46 3.56,8.95 5.32,13.52 1.33,2.37 2.17,4.44 5.45,7.6 4.49,2.55 9.22,4.32 15.7,4.74 2.67,-0.61 5.4,-1.24 8.06,-1.86 5.03,-3.12 10.06,-6.23 15.22,-9.27 6.6,-3.65 13.34,-7.24 19.99,-10.68 2.75,-2 5.57,-4.04 8.32,-6.1 2.79,-2.37 5.52,-4.63 8.23,-6.86 1.38,-0.84 2.87,-1.46 4.28,-2.09 2.67,-2.83 8.49,-3.86 11.18,-7.02 7.73,-3.74 10.97,0.99 17.54,6.36 3.2,1.61 7.57,2.86 11.52,5.12 2.07,2.4 2.7,4.19 0.32,8.27 -1.08,0.66 -2.16,1.33 -3.32,2.07 -2.59,0.71 -5.87,0.84 -8.24,2.42 -2.62,3.37 -4.07,9.06 -6.86,13.96 -0.37,1.03 -0.66,2.17 -0.95,3.24 0.54,1.05 1.12,2.25 1.71,3.5 2.23,1.61 4.66,3.53 6.98,5.4 1.41,0.79 2.74,1.58 4.12,2.36 2.66,0.43 5.2,0.97 7.94,1.59 12.39,-0.53 25.44,-4.14 37.79,-7.4 1.79,-0.61 6.58,-2.03 7.82,-4.23 9.69,-8.77 17.88,-10.44 23.66,3.82 0.54,4.16 0.09,12.02 -0.3,17.71 0.22,1.25 0.38,2.42 0.5,3.78 -0.95,1.79 -2.62,2.13 -4.75,2.37 -4.74,-0.2 -9.35,-0.33 -14.04,-0.41 -2.96,-0.79 -5.62,-2.12 -7.82,-3.37 -2.21,-1.25 -4.4,-2.45 -6.61,-3.57 -4.95,-2.8 -7.45,-4.78 -11.81,-5.08 -0.83,2.8 0.67,10.32 3.82,14.27 2.42,2.83 4.78,5.61 7.16,8.4 6.56,9.15 13.17,20.7 23.78,27.77 2.62,1.5 5.2,2.94 7.82,4.44 3.99,1.87 8.35,3.65 13.84,4.24 1.42,-0.3 2.75,-0.41 4.08,-0.54 8.81,-3.49 13.09,-13.17 15.17,-20.65 0.16,-3.16 0.45,-6.23 0.75,-9.32 -0.95,-11.6 -0.32,-21.86 -0.75,-31.67 -0.37,-1.29 -0.71,-2.57 -1.07,-3.87 -3.13,-7.19 -4.63,-12.17 -4.24,-18.28 3.95,-10.4 16.54,-2.16 24.06,-1.71 10.6,-2.07 21.79,-5.28 32.17,-8.6 1.5,-0.74 2.99,-1.41 4.41,-1.99 9.93,-5.4 17.46,-11.97 23.52,-19.88 1.33,-2.65 2.71,-5.37 3.96,-7.85 2.21,-12.14 -0.13,-17.63 -6.28,-25.81 -0.95,-0.88 -1.87,-1.79 -2.83,-2.67 -4.9,-2.83 -9.82,-5.61 -14.84,-8.22 -6.16,-2.25 -10.94,-3.38 -16.29,-4.41 -8.36,0.12 -15.39,0.98 -23.58,2.12 -13.34,0.58 -24.69,5.32 -37.04,9.52 -3.53,0.83 -8.47,2.57 -11.76,2.32 -6.07,-2.36 -4.54,-6.02 -2.75,-9.15 6.73,-6.11 16.84,-7.07 24.44,-10.68 5.7,-5.24 8.24,-15.38 8.95,-21.07 -0.63,-9.07 -2.25,-17.39 -6.5,-23.57 -6.15,-5.33 -13.01,-8.64 -19.25,-12.23 -8.57,-3.03 -9.35,2.45 -5.28,10.55 0.58,2.17 1.12,4.46 1.62,6.74 -0.29,1.08 -0.58,3.24 -2.08,5.86 -10.51,9.89 -23.24,18.38 -36.08,26.6 -5.37,4.37 -10.59,8.81 -15.79,13.22 -4.08,2.75 -8.9,5.24 -13.44,7.73 -2.61,1.79 -5.11,3.62 -7.64,5.61 -2.58,1.96 -5.15,3.91 -7.57,5.99 -3.56,3.37 -7.24,7.61 -12.02,9.98 -19.48,5.36 -40.68,11.22 -60.13,14.04 -1.55,-0.52 -3.08,-1.03 -4.46,-1.45 -1.5,-0.87 -2.99,-1.7 -4.36,-2.5 v 0 z m 16.92,-45.63 c -1.79,-1 -3.53,-2.01 -5.33,-2.99 -3.21,-1.66 -6.45,-3.33 -9.56,-4.91 -1.62,-0.91 -3.24,-1.83 -4.74,-2.65 -6.33,-4.54 -8.9,-10.49 -9.77,-15.89 2.89,-5.2 8.85,-4.15 13.91,-3.82 4.05,1.2 8.87,2.82 13.44,4.94 6.23,1.7 12.39,3.58 18.54,5.44 2.33,0.96 4.7,1.95 7.07,3.12 1.37,0.79 2.75,1.58 4.03,2.5 5.52,3.61 10.15,6.65 14.72,12.84 2.7,6.07 9.02,15.59 1.12,22.86 -2.32,1.2 -4.7,2.54 -6.94,4 -3.92,1.37 -8.53,2.57 -12.19,2.67 -4.4,-2.5 -7.68,-6.54 -10.76,-9.36 -4.32,-5.74 -6.77,-12.89 -10.23,-16.29 -1.16,-0.84 -2.32,-1.71 -3.32,-2.45 v 0 z m 111.37,117.43 c 0.08,-0.13 0.08,-0.13 0.08,-0.13 2.13,1.25 4.32,2.45 6.53,3.7 -2.21,-1.25 -4.4,-2.45 -6.61,-3.57 z"
   id="path17" />
  <path
   class="fil0"
   d="m 1756.97,469.08 c 1.32,-0.46 2.86,-0.96 4.41,-1.25 0.66,-2 1.53,-3.83 2.4,-5.65 0.92,-1.47 1.96,-2.96 3.07,-4.28 0.79,-2.33 2.04,-5.95 2.01,-8.02 1.91,-3.66 4.61,-6.36 5.44,-10.28 -0.25,-2.9 -1.22,-5.6 -1.62,-6.06 -7.74,-2.94 -12.31,4.13 -16.38,8.69 0.08,2.4 0.13,4.85 0.32,7.28 -0.44,5.94 -3.07,11.21 -2.45,17.96 0.63,0.99 1.5,1.2 2.8,1.62 z m 98.26,-43.45 c 1.13,-0.46 2.5,-0.74 3.87,-1.03 4.23,-5.17 2.66,-10.52 1.7,-14.96 -3.61,2.23 -8.1,6.31 -11.31,9.1 -1.61,3.07 1.38,5.24 5.74,6.9 v 0 z m 62.68,59.56 c 1.55,0 3.29,-0.17 6.37,0.76 0.62,-0.22 1.33,-0.3 1.99,-0.33 1.62,-1.54 3.61,-4.2 3.95,-6.11 -0.58,-6.57 -7.35,-5.91 -10.4,-5.11 -4.19,3.03 -10.72,5.9 -11.84,10.68 0.58,0.5 2.37,0.99 4.63,0.95 1.69,-0.32 3.41,-0.67 5.31,-0.84 v 0 z m -99.97,16.34 c 1.33,-0.5 2.7,-0.95 4.03,-1.46 1.47,-0.99 3.95,-4.19 5.37,-5.86 1.03,-5.2 -2.79,-7.4 -4.71,-8.98 -10.05,-1.66 -9.01,5.23 -8.3,12.8 0.66,1.84 0.49,1.87 3.61,3.5 z m -114.11,-82.68 c -0.21,-2.21 -0.41,-4.44 -0.66,-6.69 -0.99,-7.02 -2.04,-13.88 -2.83,-20.78 -0.25,-2.75 -0.54,-5.49 -0.79,-8.06 -0.84,-8.78 -2.09,-16.71 -3.46,-23.32 7.07,-9.73 8.11,-9.82 20.7,-9.15 2.99,0.62 6.03,1.37 9.26,2.08 2.38,1.37 4.75,2.7 7.31,4.03 1.17,1.12 2.33,2.37 3.66,3.62 4.82,7.07 9.26,17.38 13.64,26.36 3.62,5.4 6.69,12.06 14.89,15.62 0.83,-0.08 1.69,-0.16 2.58,-0.25 1.28,-0.99 3.36,-2.9 3.95,-4.03 2.91,-7.94 7.02,-17.54 8.19,-25.44 -1.38,-14.5 -7.32,-29.06 -15.76,-39.37 -2.49,-2.36 -4.82,-4.78 -7.15,-7.15 -3.16,-9.44 -6.06,-19.96 -10.27,-27.52 -4.04,-4.32 -6.11,-4.12 -9.19,-1.91 -2.79,3.69 -6.28,9.26 -10.69,11.97 -1.25,-0.1 -2.45,-0.13 -3.53,-0.18 -8.52,-5.64 -17.03,-11.26 -25.39,-16.71 -1.42,-15 5.99,-21.29 16.58,-30.47 4.71,-1.66 10.23,-4.12 14.52,-8.14 6.48,-8.44 13.87,-16.63 21.11,-24.62 12.23,-12.13 13.47,-17.12 31.71,-14 4.49,1.83 6.5,2.7 9.69,8.48 0.46,3.42 0.96,6.86 1.67,10.44 0.17,1.7 0.33,3.62 0.53,5.53 0.05,4.15 0.3,8.49 0.5,12.81 -1.08,1.32 0.09,6.1 -1.16,9.3 -0.49,2.49 -0.93,5.15 -1.2,7.77 -0.34,3.53 -0.54,7.04 -0.71,10.52 -2.5,4.9 -6.86,10.18 -10.6,14.75 -2.79,5.49 -4.82,7.74 -1.04,14.69 1.17,1.11 2.32,2.4 3.5,3.65 4.74,4.08 11.39,8.49 15.26,15.75 0.21,4 0.57,7.94 0.95,12.1 0.16,1.7 0.32,3.45 0.7,5.32 0.71,5.87 1.55,12.56 4.09,19.41 2.28,1.91 6.23,-0.58 9.55,-2.12 8.02,-5.28 16.34,-12.68 21.36,-22.03 2.75,-7.73 3.75,-15.46 7.29,-22.07 0.49,-0.25 1.03,-0.25 1.69,-0.32 0.54,0.44 1.33,0.91 2.09,1.53 2.67,4.12 4,7.61 4.57,13.47 -0.13,4.19 -2.12,8.53 -3.03,13.88 -0.09,0.67 -0.04,1.38 0.04,2.04 0.55,0.51 1.29,1.13 2.08,1.71 0.54,0.12 1.21,0.25 1.96,0.54 4.49,-0.42 8.86,-1.71 14.01,-4.29 3.91,-2.99 8.1,-6.52 11.39,-9.96 5.91,-7.36 11.18,-15.84 17.17,-22.66 7.94,-7.4 16.28,-16.5 27.44,-7.31 3.15,3.86 6.14,7.94 10.97,12.51 -0.37,3.83 -0.49,7.69 -0.66,11.51 -1.55,9.2 -7.29,22.08 -14.26,29.36 -2.5,0.95 -5.04,1.87 -7.36,2.83 -5.61,3.11 -7.11,5.52 -9.35,11.46 -0.08,0.71 0,1.59 0.09,2.42 1.2,1.82 2.4,3.78 3.86,5.74 3.87,4.49 8.19,7.9 8.68,16.37 -1.78,12.18 -13.6,18.16 -21.16,26.02 -3.95,6.28 -8.23,12.06 -10.56,18.91 0.14,1.21 -2.04,4.37 0.05,6.07 0.46,0.83 0.83,1.66 1.45,2.46 7.94,4.81 17.17,-2.18 23.37,-8.65 4.86,-7.24 11.97,-16.46 20.19,-19.66 1.17,-0.3 2.42,-0.38 3.58,-0.5 2.32,0.63 4.82,1.42 7.35,2.24 7.02,3.99 14.01,10.48 17.25,20.41 0.95,2.71 1.92,5.37 3.04,8.23 3.24,6.49 8.31,12.27 12.17,19.87 0.63,7.07 -2.11,18.12 10.52,15.72 2.84,-1.33 6.07,-3.75 9.15,-6.11 1.12,-1.34 2.21,-2.67 3.46,-3.95 8.44,-13.88 13.25,-27.18 18.42,-42.31 0.98,-3.7 2.07,-7.32 3.27,-10.9 0.76,-3.2 1.47,-6.4 2.42,-9.6 2.04,-14.63 4.11,-29.27 6.4,-43.74 3.28,-18.41 7.56,-37.57 9.77,-55.91 0.59,-3.32 1.13,-6.69 1.66,-9.85 0.99,-9.85 1.95,-19.71 3.12,-29.35 -0.05,-13.18 0.87,-29.1 -4.9,-40.4 -5.16,-4.86 -8.02,-5.99 -14.1,-5.4 -1.21,-0.09 -2.21,-0.17 -3.29,-0.04 -0.82,0.09 -1.7,0.33 -2.36,0.58 -16.17,1.5 -33.58,7.02 -47.47,12.68 -10.4,5.69 -20.2,14.13 -29.35,20.54 -16.46,9.06 -33,18.29 -49.51,27.52 -6.53,4.45 -12.89,8.85 -19.25,13.3 -1.5,0.33 -2.9,0.84 -4.23,1.28 -15.52,1.47 -30.81,-2.28 -42.04,-10.59 -1.69,-1.58 -3.44,-3.15 -4.98,-4.74 -3.83,-7.61 -6.48,-15.39 -8.49,-21.79 -0.66,-7.07 0.76,-10.35 2.87,-15.38 5.07,-8.69 10.18,-17.33 15.25,-25.98 2.99,-4.98 5.99,-9.82 9.03,-14.63 4,-7.65 8.05,-15.71 10.77,-23.62 0.36,-5.4 1.28,-10.4 -1.59,-13.22 -2.58,-1.32 -4.94,-2.65 -7.31,-3.82 -4.15,-3.45 0.88,-8.81 2.28,-10.63 7.98,-9.31 14.18,-18.96 24.52,-25.33 4.32,-0.4 8.77,-0.82 13.26,-1.06 12.01,0.25 27.48,7.43 38.25,16.32 3.49,5.58 7.81,12.31 8.57,20.38 -2.25,8.76 -4.74,19.4 -10.45,27.26 -7.56,9.93 -15.95,20.12 -24.31,29.44 -3.37,3.11 -6.69,6.23 -10.06,9.31 -5.11,4.49 -10.28,8.98 -15.38,13.64 -5.33,4.32 -15.39,10.18 -6.49,17.49 0.87,0.25 1.79,0.54 2.66,0.95 2.41,-0.41 4.82,-0.79 7.19,-1.2 14.47,-9.03 29.56,-16.76 44.57,-24.95 23.57,-11.97 47.64,-25.56 73.2,-32.72 6.49,-1.16 13.22,-2.28 19.88,-3.49 9.1,-0.84 19.33,-3.2 29.51,1.54 9.52,7.11 18.92,16.13 22.99,29.81 0.05,0.32 0.09,0.88 0.13,1.37 0.22,1.91 0.41,3.95 0.58,6.02 0.17,1.38 0.3,2.75 0.62,4.29 0.17,2.08 0.33,4.16 0.76,6.4 -0.17,0 -0.32,0 -0.32,0 0.44,4.66 0.87,9.31 1.5,14.14 0.03,0.33 0.08,0.66 0.28,1.16 0.63,15.26 0.38,32.83 -1.69,49.34 -2.5,8.11 0.41,16.84 1.32,26.52 -1.37,7.77 -2.53,15.5 -3.65,23.44 -0.95,3.24 -1.66,6.45 -2.41,9.65 -1.5,2.57 -1.95,10.59 -2.45,14.46 -1.59,5.2 -3.16,10.39 -4.58,15.58 -0.83,5.79 -1.69,11.65 -2.36,17.42 -1.17,5.87 -2.32,11.89 -3.33,17.88 -0.67,0.08 -0.46,0.42 -0.37,1.25 -4.49,11.56 -8.39,23.4 -13.05,34.79 -1.59,3.11 -3.91,8.41 -6.69,11.76 -2.4,4.08 -4.77,8.15 -7.19,12.18 -1,2 -2.04,4.19 -3.03,6.4 -3.7,6.58 -7.44,13.17 -10.98,19.79 -6.57,5.65 -14.76,7.31 -22.16,8.4 -6.68,0.63 -11.68,0.93 -17.16,0.41 -5.49,-1.42 -11.06,-4.69 -14.84,-6.57 -9.44,-5.52 -18.67,-11.1 -27.86,-16.67 -3.2,-2.13 -6.15,-4.28 -9.15,-6.4 -5.73,-5.37 -11.47,-10.72 -17,-15.92 -7.52,-4.37 -6.77,-1.99 -11.64,2.12 -7.86,4.95 -17.12,9.81 -25.36,12.68 -0.98,0.46 -1.99,1.07 -2.78,1.66 -8.44,8.31 -16.63,15.51 -26.2,20.9 -6.72,2.09 -14.84,1.25 -20.16,0.22 -9.72,-3.78 -22.89,-10.86 -25.52,-19.84 -0.95,-9.96 -0.09,-17.16 2.36,-25.93 1.76,-4 4.24,-8.6 6.69,-11.93 1.38,-9.51 5.82,-14.13 11.73,-21.29 4.32,-1.99 8.81,-3.99 13.35,-5.82 1.12,-0.95 2.4,-1.96 3.7,-2.94 -0.42,-2.91 -0.71,-5.83 -1,-8.78 0.33,-9.59 0.84,-16.8 5.44,-24.85 2.96,-4.12 6.62,-8.98 8.44,-13.68 -0.46,-4.82 -4.07,-6.18 -6.4,-7.02 -7.61,0.7 -8.49,6.03 -12.63,11.8 -4.54,8.6 -7.86,17.79 -12.05,26.52 -3.46,3.99 -6.87,8.14 -10.28,12.31 -1.25,1.82 -2.45,3.7 -3.49,5.52 -2.62,7.35 -5.41,14.26 -9.27,21.25 -2.7,6.15 -5.44,12.31 -7.94,18.67 -4.93,8.1 -7.9,17.61 -13.01,25.9 -4.87,14.54 -10.23,31.08 -18.78,45.09 -1.79,1.74 -3.37,3.46 -4.95,5.16 -4.12,2.13 -10.72,1.91 -13.71,2.03 -1.96,-0.49 -3.75,-1.03 -5.49,-1.58 -6.77,-3.16 -11.22,-6.23 -15.88,-9.26 -4.41,-4.29 -7.31,-7.29 -8.06,-11.73 -0.49,-1.55 -0.79,-3.07 -1.12,-4.62 -0.67,-6.89 0.54,-14.3 1.04,-19.92 1.03,-3.56 2.36,-8.22 2.28,-10.8 3.78,-18.62 7.73,-37.25 11.68,-55.91 -0.12,-12.14 -0.2,-24.32 -0.17,-36.5 v 0 z"
   id="path18" />
  <path
   class="fil0"
   d="m 3082.96,1357.87 c 0.62,1.7 1.33,3.41 1.82,5.15 3.82,7.31 9.69,14.96 15.3,22.82 5.66,5.79 10.94,10.31 18.5,13.27 3.87,0.79 7.73,1.53 11.43,2.36 2.67,0.95 5.2,1.91 7.78,3.08 2.7,0.41 5.52,0.62 8.31,0.17 1.42,-1.09 2.66,-2.18 3.95,-3.04 2.58,-4.74 -0.12,-7.06 -1.5,-9.39 -3.9,-3.37 -8.89,-7.43 -11.72,-10.56 -0.71,-1.2 -1.33,-2.24 -2.12,-3.2 -5.66,-11.63 -11.56,-23.57 -17.39,-34.12 -2.12,-4.9 -4.4,-9.78 -6.65,-14.64 -4.7,-17.79 -7.94,-35.99 -11.76,-52.13 -1.78,0.34 -3.54,0.84 -5.44,1.42 -0.46,0.79 -0.92,1.62 -1.34,2.63 0.17,8.22 -4.07,17.42 -5.77,26.89 -0.67,11.39 -5.99,23.99 -5.03,37.87 0.57,3.78 1.16,7.6 1.62,11.43 z m 51.67,-104.13 c 0.54,1.96 1.07,3.86 1.7,5.94 2.28,8.98 3.91,18.17 6.82,28.19 0.7,2.37 1.36,4.78 1.95,7.24 0.63,2.21 1.29,4.41 1.95,6.65 0.89,2.5 1.62,5.03 2.33,7.61 5.24,16.09 10.44,32.18 15.62,48.27 2.38,5.69 10.31,18.25 17.62,19.57 4.13,-1.24 6.15,-3.2 7.99,-4.61 4.61,-4.24 9.22,-8.53 13.71,-12.77 8.06,-5.48 16.63,-2.08 24.9,-0.37 6.36,2.16 12.9,5.07 19.08,6.2 1.08,-0.51 2.12,-0.95 3.24,-1.3 5.62,-4.41 -0.25,-7.35 -3.36,-9.72 -8.27,-5.37 -17,-9.2 -25.03,-14.3 -6.15,-5.12 -10.18,-10.1 -14.18,-16.58 -0.37,-1.25 -0.76,-2.55 -1.2,-3.62 0.2,-1.08 0.2,-2.12 0.25,-3.2 2.32,-6.32 4.49,-9.56 7.43,-13.02 2.13,-2.17 4.32,-4.19 6.36,-6.15 8.85,-2.61 17.47,1.46 25.53,3.62 3.95,0.54 7.78,-0.54 8.19,3.82 -1.42,3.37 -2.86,6.68 -4.24,10.23 0.13,1.16 0.17,2.49 0.25,3.86 4.32,10.15 14.55,18.55 21.83,27.48 5.53,5.33 11.52,10.6 16.67,17.09 0.95,1.45 1.79,3.07 2.62,4.74 0.54,1.91 1.16,4 1.79,6.06 1.82,9.31 3.61,20.7 9.64,29.6 3.61,3.61 8.02,5.82 12.47,8.49 14.38,7.19 30.31,15.83 45.77,19.82 5.66,0.37 10.23,0.13 14.72,-1.2 3.16,-1.61 6.27,-3.21 9.31,-4.78 1.45,-0.91 2.9,-1.86 4.19,-2.74 1.38,-1.13 2.66,-2.17 3.95,-3.07 5.36,-5.87 4.04,-6.16 2.21,-12.02 -3.99,-4.71 -8.06,-9.22 -12.14,-13.76 -2.08,-4.74 -3.99,-8.31 -6.4,-11.92 -5.33,-6.4 -11.6,-13.17 -15.67,-19.97 -11.65,-10.92 -24.48,-21.86 -35.45,-33 -18.64,-16.46 -39.87,-30.64 -60.16,-44.77 -16.95,-7.7 -35.94,-10.06 -54.88,-12.9 -0.16,0.09 -0.49,0.18 -0.79,0.27 -4.03,-0.76 -8.68,-0.76 -12.54,-1.71 -5.2,-0.05 -11.69,-0.37 -17.42,-2.17 -12.19,-7.52 -10.15,-24.82 -9.27,-35.95 2.61,-11.31 13.92,-26.36 25.1,-25.93 11.56,-2.37 21.61,-3.92 31.76,-6.37 2.58,-0.7 5.11,-1.46 7.69,-2.2 14.3,-6.62 31.14,-9.78 44.39,-15.18 1.17,-0.88 2.13,-1.66 3.12,-2.49 5.86,-1.7 8.19,-1.5 6.99,5.07 -3.7,7.97 -7.7,16.92 -11.35,26.94 -0.79,3.7 -1.58,7.57 -2.49,11.43 0.08,2.09 0.16,4.28 0.13,6.53 3.73,8.6 10.8,12.72 19.57,17.96 2.04,1.66 4.08,3.29 6.11,4.95 6.57,7.73 13.12,15.51 19.74,23.4 8.78,7.65 18.79,15.43 27.53,23.89 11.02,12.4 23.73,23.54 35.08,36.43 18.29,15.92 39.42,31.67 61.24,43.59 7.19,2.75 14.22,4.33 21.2,2.29 2.37,-0.66 -7.15,-16.17 -8.86,-19.16 -5.52,-6.49 -11.43,-11.35 -17.83,-16.18 -3.32,-2.49 -6.65,-4.99 -9.93,-7.48 -1.7,-1.03 -3.37,-2.17 -5.19,-2.95 -7.57,-2.32 -15.01,-4.12 -22.45,-7.11 -8.36,-4.32 -17.05,-11.1 -22.7,-18.09 -0.5,-1.78 -0.99,-3.36 -1.41,-4.94 1.99,-5.43 3.98,-8.77 5.52,-12.35 3.21,-12.1 -8.49,-19.58 -17.08,-23.65 -9.2,-2.5 -19.96,-6.45 -28.69,-10.28 -1.25,-1.2 -2.58,-2.23 -3.86,-3.19 -3.7,-4.95 -4.16,-10.03 -4.41,-14.6 0.83,-4.23 1.58,-8.22 2.28,-12.26 3.41,-7.73 8.14,-12.18 13.31,-16.63 4.98,-3.53 9.06,-6.11 12.79,-8.02 7.48,-3.42 15.92,-4.15 23.2,-4.7 3.87,-0.3 7.56,-0.49 11.35,-0.54 1.08,0.05 2.12,0.08 3.15,0.13 7.78,-0.05 15.72,0.58 22.07,-0.76 3.46,-1.15 6.91,-2.36 10.36,-3.53 5.12,-2.7 10.18,-5.36 15.13,-7.85 0.54,1.74 1.08,3.65 1.61,5.56 -0.36,9.44 -4.9,18.72 -14.54,25.27 -3.5,1.71 -7.12,3.5 -10.73,5.2 -0.75,0.42 -1.5,0.95 -2.16,1.5 -5.24,2.75 -15.67,7.87 -16.14,15.75 0.59,2.09 1.17,4.13 1.66,6.42 0.76,1.86 4.04,8.35 6.66,9.8 1.5,-0.25 2.86,-0.3 4.24,-0.37 12.6,-4.14 24.77,-9.81 36.25,-14.18 0.95,-1.5 1.91,-2.94 2.83,-4.44 3.99,-1.17 5.07,0.79 6.86,2.83 0.12,1.54 0.03,3.11 0,4.66 -2.37,6.06 -5.08,11.68 -6.28,20 -2.59,5.91 -5.12,12.01 -7.82,18.12 -1.12,6.19 3.37,15.58 5.78,22.32 2.53,4.99 4.99,9.93 7.31,14.96 7.15,10.36 19.12,21.2 28.68,29.81 4.71,7.06 11.8,14.34 16.63,22.56 0.67,2.41 1.38,4.78 2.12,7.36 0.59,4.98 1.08,10.18 0.68,16 -0.51,2.37 -1,4.78 -1.47,7.32 -2.28,5.32 -7.23,12.63 -11.63,18.75 -1.76,1.74 -5.66,6.69 -9.36,8.27 -4.49,4.08 -15.92,5.15 -22.49,3.29 -1.25,-0.71 -2.41,-1.25 -3.79,-1.7 -3.41,-2.79 -5.36,-6.53 -7.9,-9.93 -3.56,-2.75 -6.19,-4.08 -10.39,-6.12 -0.54,-0.54 -1.04,-1.08 -1.5,-1.5 -4,-10.72 -9.98,-20.54 -18.96,-26.55 -0.88,-0.09 -4.66,-2.29 -4.82,1.91 2.5,9.11 2.37,18.11 1.66,28.68 -2.32,13.97 -2.45,22.5 -14.84,33.89 -2.17,1.45 -4.45,2.99 -6.77,4.53 -4.24,2.12 -8.32,3.99 -14.06,5.6 -2.28,0 -4.52,-0.03 -6.94,-0.03 -10.48,-4.54 -23.4,-9.9 -33.49,-15.43 -5.83,-3.46 -11.69,-6.94 -17.5,-10.43 -3.7,-3.26 -7.56,-6.45 -11.39,-9.49 -1.71,-2.23 -3.57,-4.49 -5.37,-6.53 -1.45,-1.33 -2.78,-2.48 -4.15,-3.61 -17.8,-11.22 -36.87,-13.42 -57.45,-17.62 -6.91,-2.99 -13.8,-6.53 -21.25,-8.32 -4.78,0.17 -5.82,0.8 -9.93,5.49 -4.19,6.4 -8.36,15.17 -12.14,24.73 1.5,6.98 3.07,14.14 4.61,21.29 0.54,1.74 1.05,3.49 1.59,5.4 0.95,1.95 1.86,3.95 2.65,6.1 1.42,1.34 2.83,2.67 4.29,4.12 2.2,4.57 4.44,9.23 6.65,13.98 1.79,6.02 1.65,9.18 -2.95,16.41 -0.99,1.3 -2.2,2.66 -3.33,4.03 -5.15,4.24 -10.59,9.82 -19.03,12.27 -2.42,0.05 -4.29,-0.45 -7.29,-1.82 -0.99,-1.08 -2.21,-2.13 -3.28,-3.04 -4.04,-6.62 -8.15,-13.12 -12.31,-19.7 -3.25,-9.39 -6.69,-18.78 -10.02,-27.98 -0.62,-2.07 -1.2,-4.11 -1.82,-6.19 -2.04,-6.98 -3.62,-7.06 -9.82,-8.19 -2.24,0.62 -9.43,-0.36 -12.63,-1.32 -1.83,-0.34 -3.62,-0.51 -5.41,-0.67 -5.81,-0.54 -12.96,-1.42 -19.48,-2.95 -16.38,-6.61 -33.77,-16.42 -49.27,-25.19 -4.11,-2.95 -9.59,-7.39 -12.09,-11.34 -0.54,-1.92 -1.08,-3.66 -1.58,-5.41 -0.08,-2.7 -0.17,-5.31 -0.22,-7.86 0.88,-9.93 3.95,-19.11 5.37,-27.27 1.33,-3.15 2.63,-6.31 3.83,-9.43 4.08,-13.22 5.44,-26.23 9.02,-37.62 8.35,-15.22 16.96,-27.94 25.6,-40.78 0.05,-0.37 0,-0.71 -0.08,-0.84 -3.98,-2.49 -7.6,-4.85 -11.13,-7.97 -3.29,-4.24 -6.57,-8.44 -9.85,-12.68 -0.45,-2.08 -1.03,-4.04 -1.58,-5.91 0.08,-2.12 0.17,-4.19 0.25,-6.15 1.62,-7.02 3.33,-11.8 6.48,-15.83 4.46,-4.24 9.61,-10.23 14.1,-11.56 8.86,3.28 15.88,10.22 23.45,15.96 2.21,2.32 4.4,4.61 6.44,6.94 4.49,6.28 8.64,13.02 11.18,21.58 v 0 z"
   id="path19" />
  
  
  
  
  
  
  
  
  
  
  
  
  
  
  
  
  
  
  
  <path
   class="fil0"
   d="m 295.85,1963.8 c -8.7,9.13 -12.51,21.8 -11.42,38.01 0.72,10.82 3.68,20.2 8.61,28.16 4.92,7.68 11.76,13.16 20.5,16.2 8.75,3.31 20.72,4.3 36.17,3.27 l 125.66,-8.45 -1.63,-24.47 -126.96,8.54 c -10.82,0.73 -18.33,0.44 -23.34,-1.01 -4.99,-1.22 -9.07,-4.05 -12.21,-8.23 -3.14,-4.45 -4.77,-9.52 -5.18,-15.69 -0.56,-8.24 1.59,-14.86 6.43,-19.83 5.09,-5 14.42,-8.48 28.55,-9.94 l -4.56,-21.69 c -18.3,0.96 -31.94,6.04 -40.62,15.14 z"
   id="path39" />
  <polygon
   class="fil0"
   points="480.68,2081.85 297.62,2106.99 300.94,2131.29 484.01,2106.15 "
   id="polygon39" />
  <polygon
   class="fil0"
   points="374.22,2295.55 493.83,2168.48 488.24,2144.09 308.13,2185.47 313.39,2208.37 454.75,2175.88 335.14,2302.94 340.74,2327.35 520.82,2285.95 515.57,2263.07 "
   id="polygon40" />
  <path
   class="fil0"
   d="m 474.42,2489.42 -32.36,12.18 c -6.17,-3.19 -13.01,-8.89 -20.41,-16.85 -7.42,-7.95 -12.99,-16.89 -16.71,-26.8 -4.27,-11.36 -5.86,-22.89 -4.61,-34.94 1.26,-12.05 6.08,-22.69 14.47,-31.92 8.37,-9.22 20.42,-16.8 35.88,-22.61 12.56,-4.73 24.98,-6.92 37.24,-6.57 7.28,0.3 14.44,1.73 21.25,4.41 7.13,2.83 13.5,7.32 19.55,13.88 5.97,6.3 11.11,14.85 15.01,25.22 3.27,8.7 4.82,17.22 4.31,25.4 -0.16,8.34 -2.18,15.45 -5.8,21.22 -3.61,5.78 -9.2,11.47 -17.14,17.48 l 13.53,18.34 c 10.51,-7.25 18.29,-15.15 23.35,-23.67 5.06,-8.53 7.61,-18.59 8,-30.05 0.29,-11.69 -2.05,-23.77 -6.78,-36.33 -6.45,-17.14 -15.79,-31 -27.81,-41.65 -11.91,-10.41 -26.6,-16.46 -43.73,-18.01 -17.37,-1.47 -34.43,0.83 -51.11,7.1 -17.14,6.46 -31,15.8 -42.13,28 -11.13,12.18 -17.77,26.81 -19.83,43.3 -2.06,16.49 0.13,33.32 6.59,50.48 4.73,12.56 11.54,24.06 20.58,34.17 9.06,10.11 20.18,19.16 33.38,27.13 l 64,-24.08 -27.54,-73.19 -20.28,7.63 19.08,50.72 z"
   id="path40" />
  <path
   class="fil0"
   d="m 469.2,2644.06 c 5.39,10 10.94,18.14 16.79,24.66 5.98,6.76 12.13,11.66 18.71,15.15 6.57,3.49 14.14,5.57 22.71,6.82 8.8,1.12 18.5,0.6 29.63,-1.57 11.13,-2.2 23.01,-6.81 35.28,-13.42 14.54,-7.82 26.17,-16.72 35.21,-27.14 9.04,-10.44 14.94,-21.81 17.34,-34.24 2.15,-9.64 1.73,-19.68 -1.01,-30.22 -1.95,-7.45 -6.53,-17.58 -13.26,-30.1 l -30.19,-56.14 -162.75,87.54 31.55,58.65 z m 123.72,-114.33 18.33,34.1 c 6.85,12.73 10.72,22.65 11.64,29.79 1.32,9.54 -1.15,19.65 -7.53,30.13 -6.03,10.58 -17.76,20.39 -34.8,29.55 -12.28,6.62 -23.46,10.88 -33.69,12.56 -10.09,1.91 -19.12,1.5 -27.03,-0.69 -5.59,-1.67 -11.01,-5.21 -16.23,-10.02 -5.36,-5.04 -10.78,-12.96 -16.53,-23.65 l -18.7,-34.77 124.55,-67.01 z"
   id="path41" />
  <polygon
   class="fil0"
   points="637.74,2720.07 684.08,2687.24 747.02,2776.13 764.73,2763.59 687.59,2654.7 536.79,2761.51 616.46,2873.98 634.15,2861.44 568.67,2768.99 620.05,2732.59 678.98,2815.79 696.67,2803.26 "
   id="polygon41" />
  <path
   class="fil0"
   d="m 734.77,3009.39 16.17,-14.44 -78.58,-87.97 17.22,-0.48 164.78,-8.07 16.17,-14.44 -88.03,-98.55 -16.17,14.43 68.6,76.81 c -8.76,-0.15 -18.44,-0.14 -29.27,0.52 l -151.45,8.29 -16.75,14.96 97.32,108.94 z"
   id="path42" />
  <polygon
   class="fil0"
   points="977.5,2980.74 927.07,3037.77 855.53,2974.52 905.95,2917.48 887.59,2901.25 765.19,3039.69 783.56,3055.93 841.17,2990.77 912.71,3054.02 855.11,3119.19 873.48,3135.42 995.87,2996.98 "
   id="polygon42" />
  <polygon
   class="fil0"
   points="998.25,3095.79 1030.4,3049 1120.16,3110.67 1132.44,3092.81 1022.46,3017.24 917.82,3169.54 1031.41,3247.59 1043.69,3229.73 950.3,3165.56 985.96,3113.65 1069.98,3171.4 1082.26,3153.53 "
   id="polygon43" />
  <polygon
   class="fil0"
   points="1201.16,3294.43 1181.73,3120.99 1159.52,3109.47 1074.48,3273.52 1095.33,3284.34 1162.08,3155.55 1181.48,3328.99 1203.72,3340.51 1288.76,3176.47 1267.9,3165.66 "
   id="polygon44" />
  <path
   class="fil0"
   d="m 1430.95,3392.83 c -11.54,4.72 -23.79,4.86 -36.82,0.7 -10.56,-3.39 -19.78,-9.31 -27.06,-17.88 -7.36,-8.32 -11.57,-18.88 -12.22,-31.28 -0.8,-12.72 1.15,-26.45 5.95,-41.45 3.69,-11.55 9.03,-22.31 16.18,-31.95 7.23,-9.88 16.36,-16.44 27.51,-19.93 11.22,-3.73 23.55,-3.31 37.07,1.01 11.8,3.77 20.45,9.79 26.42,18.2 5.82,8.08 8.72,19.33 8.81,33.44 l 24.59,1.91 c 0.52,-17.72 -3.83,-32.94 -13.04,-45.64 -9.14,-12.95 -22.47,-22.09 -39.92,-27.66 -15.74,-5.04 -30.84,-6.07 -46.15,-3.11 -15.07,3.04 -28.44,10.14 -39.72,21.71 -11.45,11.23 -20.02,26.12 -25.91,44.55 -5.35,16.72 -7.17,33.47 -5.67,49.93 1.44,16.73 6.98,30.7 16.28,42.33 9.35,11.39 23.59,20.27 42.51,26.34 18.19,5.82 35.25,5.86 51.25,-0.15 15.76,-6.06 29.24,-17.73 40.31,-35.33 l -21.47,-13.38 c -7.92,13.74 -17.67,23.08 -28.88,27.63 z"
   id="path44" />
  <polygon
   class="fil0"
   points="1553.68,3344.97 1564.12,3289.17 1671.18,3309.18 1675.16,3287.87 1543.99,3263.35 1510.05,3445 1645.53,3470.32 1649.5,3449 1538.13,3428.19 1549.7,3366.3 1649.92,3385.01 1653.9,3363.71 "
   id="polygon45" />
  <path
   class="fil0"
   d="m 1718.53,3477.89 5.13,-81.9 28.33,1.77 c 6.18,0.39 10.8,0.94 13.35,1.61 3.8,1.26 7.31,3.04 11.03,5.61 3.47,2.53 7.31,6.92 11.59,13.12 4.02,6.21 9.4,15.08 15.92,26.61 l 22.05,39.91 30.4,1.91 -28.79,-52.24 c -5.83,-10.18 -12,-18.85 -18.56,-25.74 -3.16,-3.3 -7.85,-6.68 -14.11,-10.18 17.68,-1.23 31.18,-6.33 40.22,-14.55 9.08,-8.48 13.9,-19.3 14.72,-32.43 0.63,-10.04 -1.36,-19.49 -5.99,-28.31 -4.64,-8.57 -10.96,-14.9 -19.25,-18.78 -8.3,-3.89 -20.82,-6.22 -37.31,-7.25 l -81.65,-5.13 -11.57,184.43 24.47,1.53 z m 10.29,-164.07 58.21,3.65 c 13.65,0.85 23.52,4.31 29.35,10.37 6.07,6.08 8.74,13.22 8.18,21.97 -0.36,5.93 -2.25,11.49 -5.94,16.44 -3.66,4.69 -8.55,8.26 -14.87,10.18 -6.58,1.92 -15.14,2.41 -26.48,1.71 l -52.29,-3.28 3.83,-61.05 z"
   id="path45" />
  <path
   class="fil0"
   d="m 1900.7,3484.86 16.83,-57.08 77.54,-4.54 24.67,54.65 27.83,-1.62 -86.04,-180.08 -26.8,1.57 -60.05,188.62 z m 39.8,-132.62 c 3.45,-11.84 6.37,-23.9 8.23,-36.15 3.42,9.87 8.56,22.51 15.41,37.86 l 22.3,49.89 -62.86,3.67 16.92,-55.28 z"
   id="path46" />
  <path
   class="fil0"
   d="m 2105.48,3467.58 -29.83,-154.58 82.3,144.46 21.54,-4.16 23.66,-162.02 29.31,151.81 23.05,-4.46 -35.02,-181.44 -32.18,6.21 -19.23,134.62 c -2.07,13.79 -3.24,24.02 -4,31 -3.21,-5.71 -7.71,-14.03 -14.07,-25.16 l -67.62,-120.2 -35.98,6.95 35.03,181.43 23.05,-4.45 z"
   id="path47" />
  <polygon
   class="fil0"
   points="2256.89,3244.36 2309.8,3421.4 2333.3,3414.38 2280.39,3237.34 "
   id="polygon47" />
  <path
   class="fil0"
   d="m 2480.3,3329.24 c -5.88,10.98 -15.23,18.89 -27.92,23.98 -10.32,4.13 -21.19,5.42 -32.27,3.46 -10.97,-1.73 -20.95,-7.19 -29.33,-16.34 -8.71,-9.3 -15.95,-21.13 -21.81,-35.76 -4.5,-11.26 -7.24,-22.94 -7.88,-34.92 -0.72,-12.24 2.16,-23.1 8.54,-32.89 6.27,-10.01 16.05,-17.54 29.22,-22.81 11.52,-4.61 22,-5.46 31.99,-2.78 9.63,2.53 19.01,9.34 28.08,20.17 l 20.17,-14.21 c -10.88,-13.99 -23.92,-22.95 -39.11,-26.88 -15.29,-4.16 -31.4,-2.72 -48.4,4.1 -15.35,6.13 -27.64,14.95 -37.57,26.99 -9.69,11.93 -15.49,25.93 -16.82,42.03 -1.67,15.95 1.2,32.88 8.39,50.84 6.53,16.3 15.78,30.39 27.42,42.13 11.76,11.99 24.93,19.22 39.5,22.27 14.47,2.84 31.11,0.63 49.55,-6.74 17.74,-7.11 30.92,-17.94 39.44,-32.75 8.3,-14.71 11.25,-32.29 8.58,-52.92 l -25.08,3.36 c 2.64,15.64 1.06,29.05 -4.7,39.69 z"
   id="path48" />
  <path
   class="fil0"
   d="m 2692.39,3160.52 c 12.14,19.81 17.05,35.26 14.97,46.2 -2.42,10.87 -11.05,20.99 -26.45,30.43 -8.8,5.39 -17.37,8.21 -25.69,8.46 -8.33,0.26 -15.82,-2.11 -22.38,-6.88 -6.47,-5.11 -13.84,-14.23 -22.33,-28.08 l -55.66,-90.9 -20.92,12.8 55.8,91.12 c 10.11,16.51 20.17,28.51 30.07,35.77 9.9,7.26 21.17,10.34 33.5,9.75 12.57,-0.73 26.29,-5.5 41.04,-14.53 15.18,-9.29 25.55,-19.58 31.36,-31.31 5.74,-11.4 7.42,-23.01 5.5,-34.54 -2.15,-11.4 -8.19,-25.24 -17.77,-40.88 l -55.78,-91.13 -20.92,12.81 55.65,90.91 z"
   id="path49" />
  <polygon
   class="fil0"
   points="2870.8,3074.43 2704.3,3022.14 2684.78,3037.82 2800.53,3181.87 2818.83,3167.16 2727.98,3054.1 2894.48,3106.39 2914,3090.7 2798.26,2946.65 2779.94,2961.35 "
   id="polygon49" />
  <polygon
   class="fil0"
   points="2827.29,2917.47 2955.34,3050.69 2973.03,3033.7 2844.96,2900.48 "
   id="polygon50" />
  <path
   class="fil0"
   d="m 3063.56,2937.7 -90.97,-176.34 -16.55,18.8 67.84,126.05 c 4.99,9.55 10.51,18.53 16.19,27.32 -8.84,-4.01 -18.45,-8.34 -29.15,-12.59 l -132.46,-52.63 -17.55,19.96 185.94,68.41 z"
   id="path50" />
  <polygon
   class="fil0"
   points="3060.34,2772.05 3013.6,2739.83 3075.42,2650.17 3057.57,2637.85 2981.83,2747.71 3133.96,2852.59 3212.19,2739.13 3194.34,2726.81 3130.05,2820.1 3078.19,2784.36 3136.05,2700.42 3118.21,2688.12 "
   id="polygon51" />
  <path
   class="fil0"
   d="m 3249.24,2674.71 -72.77,-37.93 13.12,-25.18 c 2.86,-5.48 5.24,-9.48 6.89,-11.53 2.71,-2.97 5.75,-5.44 9.6,-7.82 3.72,-2.14 9.3,-3.88 16.71,-5.26 7.3,-1.15 17.59,-2.46 30.79,-3.74 l 45.43,-3.98 14.08,-27.01 -59.42,5.11 c -11.68,1.2 -22.1,3.33 -31.05,6.52 -4.3,1.55 -9.3,4.47 -15.03,8.76 6.05,-16.64 6.87,-31.05 3.01,-42.66 -4.06,-11.73 -11.99,-20.53 -23.66,-26.61 -8.92,-4.66 -18.36,-6.67 -28.3,-6.02 -9.72,0.76 -18.08,3.97 -24.98,9.96 -6.92,6.02 -14.14,16.51 -21.78,31.16 l -37.81,72.55 163.86,85.41 11.33,-21.74 z m -145.78,-75.99 26.96,-51.73 c 6.33,-12.13 13.49,-19.74 21.4,-22.61 8,-3.09 15.62,-2.62 23.4,1.45 5.27,2.75 9.58,6.73 12.6,12.09 2.81,5.26 4.1,11.16 3.28,17.72 -0.92,6.79 -3.94,14.83 -9.2,24.9 l -24.21,46.45 -54.24,-28.27 z"
   id="path51" />
  <path
   class="fil0"
   d="m 3304.05,2504.87 c 11.19,-2.71 21.28,-8.32 29.84,-17.25 8.56,-8.92 15.59,-21.18 21.45,-36.9 4.6,-12.34 6.57,-24.26 5.57,-35.64 -0.91,-11.64 -4.31,-21.72 -10.39,-29.77 -6.25,-8.39 -13.97,-14.29 -23.15,-17.72 -9.21,-3.42 -18.31,-4.07 -27.37,-1.93 -8.83,2.22 -17.33,7.31 -25.71,15.76 -5.66,5.6 -14.32,16.97 -25.37,34.07 -11.04,17.08 -19.48,27.15 -25.21,29.99 -5.82,3.06 -11.72,3.35 -18.01,0.99 -7.01,-2.61 -11.87,-8 -14.62,-16.19 -2.64,-8.43 -1.6,-19.34 3.61,-33.36 4.96,-13.31 11.56,-22.14 19.63,-26.84 8.18,-4.94 17.84,-5.74 29.18,-2.9 l 6.5,-22.64 c -10.33,-3.3 -20.51,-4.05 -30.48,-1.71 -9.95,2.34 -18.79,7.6 -26.6,15.98 -7.71,8.14 -14.14,18.7 -18.9,31.51 -4.33,11.61 -6.35,22.98 -6.01,33.85 0.51,11.2 3.62,20.62 9.31,28.26 5.83,7.95 12.92,13.35 21.87,16.69 7.98,2.96 15.72,3.65 23.79,1.98 7.81,-1.78 15.62,-5.74 23.05,-12.36 5.82,-5.27 13.6,-15.03 23.17,-29.65 9.74,-14.28 16.5,-23.59 19.92,-27.55 5.6,-6.18 10.87,-9.99 15.92,-11.71 5.28,-1.61 10.74,-1.5 16.07,0.48 5.33,1.98 9.78,5.56 12.96,10.34 3.33,5.1 5.16,11.28 5.3,19.05 0.15,7.76 -1.55,15.95 -4.78,24.66 -3.6,9.67 -8.62,17.99 -14.91,24.47 -6.6,6.64 -13.11,10.82 -20.02,12.36 -7.01,1.81 -15.17,1.53 -24.24,-0.76 l -6.08,22.24 c 11.71,4.1 23.27,4.82 34.71,2.2 z"
   id="path52" />
  <polygon
   class="fil0"
   points="3210.91,2288.6 3388.94,2338.15 3395.51,2314.52 3217.49,2264.98 "
   id="polygon52" />
  <polygon
   class="fil0"
   points="3258.45,2185.53 3418.58,2216.63 3423.24,2192.55 3263.12,2161.46 3274.75,2101.67 3253.45,2097.53 3225.56,2241.18 3246.84,2245.32 "
   id="polygon53" />
  <path
   class="fil0"
   d="m 3445.86,2016.58 -77.95,-6.12 -100.49,-81.94 -2.23,28.56 51.49,39.78 c 11.47,8.92 21.73,16.72 30.82,22.87 -10.76,5.1 -21.54,10.48 -32.37,16.61 l -58.69,31.89 -2.3,29.33 111.84,-62.65 77.95,6.13 z"
   id="path53" />
 </g>
</svg>
